<svg width="24" height="24" xmlns="http://www.w3.org/2000/svg"><path fill-rule="evenodd" clip-rule="evenodd" d="M12.784 4.172a3 3 0 00-1.568 0c-.534.144-1.053.524-2.531 1.673l-2.6 2.023c-.952.74-1.271.999-1.497 1.304a3 3 0 00-.477.976c-.102.365-.11.777-.11 1.982v6.62c0 .77.01.934.042 1.04a1 1 0 00.667.667c.106.032.27.043 1.04.043h.625l.174-.001a1 1 0 00.95-.95l.001-.174V16.5a4.5 4.5 0 019 0v2.875l.001.174a1 1 0 00.95.95H18.25c.77 0 .934-.01 1.04-.042a1 1 0 00.667-.667c.032-.106.043-.27.043-1.04v-6.62c0-1.205-.009-1.617-.11-1.982a3.003 3.003 0 00-.478-.976c-.226-.305-.545-.564-1.496-1.304l-2.6-2.023c-1.479-1.15-1.997-1.529-2.532-1.673zm-2.09-1.93a5 5 0 012.613 0c.973.263 1.827.928 3.066 1.892l.17.133 2.6 2.022.107.083c.804.625 1.36 1.057 1.77 1.611.362.489.631 1.04.795 1.626.186.663.186 1.368.185 2.386v6.881c.001.571.002 1.064-.129 1.495a3 3 0 01-2 2c-.43.13-.924.13-1.495.129h-.772c-.095 0-.177 0-.251-.004a3 3 0 01-2.85-2.849c-.003-.074-.003-.156-.003-.251V16.5a2.5 2.5 0 00-5 0v2.896c0 .095 0 .177-.003.251a3 3 0 01-3.1 2.853h-.773c-.57 0-1.064.001-1.495-.13a3 3 0 01-2-2C2 19.94 2 19.448 2 18.877V12.13v-.135c0-1.018 0-1.723.185-2.386a5 5 0 01.795-1.626c.41-.554.966-.986 1.77-1.611l.107-.083 2.6-2.022.17-.133c1.24-.964 2.093-1.63 3.067-1.893z"/></svg>