<svg id="Слой_1" data-name="Слой 1" xmlns="http://www.w3.org/2000/svg" viewBox="0 0 400 200"><defs><style>.cls-2{opacity:.8}.cls-3{fill:#404040}</style></defs><path fill="#a1b333" d="M0 0h400v200H0z"/><g class="cls-2"><path class="cls-3" d="M205.35 147.53l-5.35 5.35-5.35-5.35H184v16.05h32.1v-16.05zM200 161.17a.8.8 0 11.8-.8.8.8 0 01-.8.8zm0-2.4a.81.81 0 11.8-.8.8.8 0 01-.8.8zm0-2.41a.8.8 0 11.8-.8.8.8 0 01-.8.8zm13.91-1.87a.54.54 0 01-.54.53h-7.49a.53.53 0 01-.53-.53v-1.61h8.56zM193.05 164.65h5.35V170h-5.35zM201.6 164.65h5.35V170h-5.35zM217.12 150.74h2.14v10.7h-2.14zM180.74 150.74h2.14v10.7h-2.14zM221.93 124h-19.26a1.07 1.07 0 00-1.07 1.07v4.28h-3.2v-4.28a1.07 1.07 0 00-1.07-1.07h-19.26a1.07 1.07 0 00-1.07 1.07v19.26a1.07 1.07 0 001.07 1.07h19.26a1.07 1.07 0 001.07-1.07v-4.28h3.2v4.28a1.07 1.07 0 001.07 1.07h19.26a1.07 1.07 0 001.07-1.07v-19.26a1.07 1.07 0 00-1.07-1.07zm-26.21 17.65a1.07 1.07 0 01-1.07 1.07h-13.91a1.07 1.07 0 01-1.07-1.07v-13.91a1.07 1.07 0 011.07-1.07h13.91a1.07 1.07 0 011.07 1.07zm24.61 0a1.07 1.07 0 01-1.07 1.07h-13.91a1.07 1.07 0 01-1.07-1.07v-13.91a1.07 1.07 0 011.07-1.07h13.91a1.07 1.07 0 011.07 1.07z"/><path class="cls-3" d="M212.32 135.91l-3.35-5.56h-.68v7.49h.78v-5.96l3.04 5.01h.39l3.03-5.04v5.99h.78v-7.49h-.67l-3.32 5.56zM186.42 131.4a3.58 3.58 0 011.7-.4 3.3 3.3 0 012.35.87l.51-.5a3.3 3.3 0 00-1.26-.81 4.72 4.72 0 00-1.63-.27 4.44 4.44 0 00-2.11.49 3.71 3.71 0 00-1.46 1.37 3.73 3.73 0 001.46 5.26 4.4 4.4 0 002.1.5 5.11 5.11 0 001.57-.25 3.85 3.85 0 001.29-.71v-2.85h-.79v2.52a3.81 3.81 0 01-3.74.17 3.08 3.08 0 01-1.18-1.11 3 3 0 011.19-4.28z"/></g><g class="cls-2"><path class="cls-3" d="M248.42 151.44l-4.42 4.42-4.42-4.42h-8.84v13.26h26.52v-13.26zM244 162.71a.67.67 0 11.66-.66.66.66 0 01-.66.66zm0-2a.66.66 0 11.66-.66.66.66 0 01-.66.67zm0-2a.66.66 0 11.66-.66.65.65 0 01-.66.68zm11.49-1.54a.44.44 0 01-.44.44h-6.19a.44.44 0 01-.44-.44v-1.33h7.07zM238.26 165.58h4.42V170h-4.42zM245.33 165.58h4.42V170h-4.42zM258.14 154.09h1.77v8.84h-1.77zM228.09 154.09h1.77v8.84h-1.77zM262.12 132h-15.91a.88.88 0 00-.88.88v3.54h-2.66v-3.54a.88.88 0 00-.88-.88h-15.91a.89.89 0 00-.88.88v15.91a.88.88 0 00.88.88h15.91a.87.87 0 00.88-.88v-3.53h2.66v3.53a.87.87 0 00.88.88h15.91a.88.88 0 00.88-.88v-15.91a.89.89 0 00-.88-.88zm-21.65 14.58a.89.89 0 01-.89.89h-11.49a.88.88 0 01-.88-.89v-11.49a.87.87 0 01.88-.88h11.49a.88.88 0 01.89.88zm20.32 0a.88.88 0 01-.88.89h-11.49a.89.89 0 01-.89-.89v-11.49a.88.88 0 01.89-.88h11.49a.87.87 0 01.88.88z"/><path class="cls-3" d="M254.18 141.84l-2.77-4.59h-.56v6.19h.65v-4.93l2.5 4.14h.32l2.51-4.16v4.95h.65v-6.19h-.56l-2.74 4.59zM232.78 138.11a3 3 0 011.41-.33 2.72 2.72 0 011.94.72l.42-.41a2.63 2.63 0 00-1-.67 3.9 3.9 0 00-1.35-.22 3.66 3.66 0 00-1.74.4 3 3 0 00-1.65 2.74 3.1 3.1 0 00.44 1.62 3 3 0 001.21 1.12 3.65 3.65 0 001.73.41 4.26 4.26 0 001.3-.2 3.13 3.13 0 001.06-.59v-2.36h-.65v2.09a2.86 2.86 0 01-1.68.47 2.92 2.92 0 01-1.4-.33 2.49 2.49 0 01-1.34-2.23 2.46 2.46 0 01.36-1.31 2.42 2.42 0 01.94-.92z"/></g><g class="cls-2"><path class="cls-3" d="M283.49 155.35l-3.49 3.49-3.49-3.49h-7v10.46h20.94v-10.46zm-3.49 8.89a.52.52 0 11.52-.52.52.52 0 01-.52.52zm0-1.57a.52.52 0 11.52-.52.52.52 0 01-.52.52zm0-1.57a.52.52 0 11.52-.52.52.52 0 01-.52.52zm9.07-1.22a.35.35 0 01-.35.35h-4.88a.34.34 0 01-.35-.35v-1h5.58zM275.47 166.51h3.49V170h-3.49zM281.05 166.51h3.49V170h-3.49zM291.16 157.44h1.4v6.98h-1.4zM267.44 157.44h1.4v6.98h-1.4zM294.3 140h-12.56a.69.69 0 00-.69.7v2.79H279v-2.79a.69.69 0 00-.69-.7H265.7a.7.7 0 00-.7.7v12.56a.69.69 0 00.7.69h12.56a.69.69 0 00.69-.69v-2.79h2.1v2.79a.69.69 0 00.69.69h12.56a.69.69 0 00.7-.69V140.7a.7.7 0 00-.7-.7zm-17.09 11.51a.7.7 0 01-.7.7h-9.07a.7.7 0 01-.7-.7v-9.07a.71.71 0 01.7-.7h9.07a.7.7 0 01.7.7zm16.05 0a.7.7 0 01-.7.7h-9.07a.7.7 0 01-.7-.7v-9.07a.7.7 0 01.7-.7h9.07a.71.71 0 01.7.7z"/><path class="cls-3" d="M288.03 147.76l-2.18-3.62h-.44v4.89h.51v-3.89l1.98 3.27h.25l1.98-3.29v3.91h.51v-4.89h-.44l-2.17 3.62zM271.14 144.82a2.43 2.43 0 011.12-.26 2.12 2.12 0 011.52.57l.34-.32a2.15 2.15 0 00-.82-.53 3.08 3.08 0 00-1.07-.18 2.91 2.91 0 00-1.37.32 2.4 2.4 0 00-1.31 2.17 2.4 2.4 0 00.35 1.27 2.43 2.43 0 001 .89 2.91 2.91 0 001.37.32 3.2 3.2 0 001-.16 2.63 2.63 0 00.84-.46v-1.86h-.52v1.64a2.45 2.45 0 01-2.43.11 1.85 1.85 0 01-.77-.72 2 2 0 01.77-2.8z"/></g><g class="cls-2"><path class="cls-3" d="M160.42 151.44l-4.42 4.42-4.42-4.42h-8.84v13.26h26.52v-13.26zM156 162.71a.67.67 0 11.66-.66.66.66 0 01-.66.66zm0-2a.66.66 0 11.66-.66.66.66 0 01-.66.67zm0-2a.66.66 0 11.66-.66.65.65 0 01-.66.68zm11.49-1.54a.44.44 0 01-.44.44h-6.19a.44.44 0 01-.44-.44v-1.33h7.07zM150.26 165.58h4.42V170h-4.42zM157.33 165.58h4.42V170h-4.42zM170.14 154.09h1.77v8.84h-1.77zM140.09 154.09h1.77v8.84h-1.77zM174.12 132h-15.91a.88.88 0 00-.88.88v3.54h-2.66v-3.54a.88.88 0 00-.88-.88h-15.91a.89.89 0 00-.88.88v15.91a.88.88 0 00.88.88h15.91a.87.87 0 00.88-.88v-3.53h2.66v3.53a.87.87 0 00.88.88h15.91a.88.88 0 00.88-.88v-15.91a.89.89 0 00-.88-.88zm-21.65 14.58a.89.89 0 01-.89.89h-11.49a.88.88 0 01-.88-.89v-11.49a.87.87 0 01.88-.88h11.49a.88.88 0 01.89.88zm20.32 0a.88.88 0 01-.88.89h-11.49a.89.89 0 01-.89-.89v-11.49a.88.88 0 01.89-.88h11.49a.87.87 0 01.88.88z"/><path class="cls-3" d="M166.18 141.84l-2.77-4.59h-.56v6.19h.65v-4.93l2.5 4.14h.32l2.51-4.16v4.95h.65v-6.19h-.56l-2.74 4.59zM144.78 138.11a3 3 0 011.41-.33 2.72 2.72 0 011.94.72l.42-.41a2.63 2.63 0 00-1-.67 3.9 3.9 0 00-1.35-.22 3.66 3.66 0 00-1.74.4 3 3 0 00-1.65 2.74 3.1 3.1 0 00.44 1.62 3 3 0 001.21 1.12 3.65 3.65 0 001.73.41 4.26 4.26 0 001.3-.2 3.13 3.13 0 001.06-.59v-2.36h-.65v2.09a2.86 2.86 0 01-1.68.47 2.92 2.92 0 01-1.4-.33 2.49 2.49 0 01-1.34-2.23 2.46 2.46 0 01.36-1.31 2.42 2.42 0 01.94-.92z"/></g><g class="cls-2"><path class="cls-3" d="M123.49 155.35l-3.49 3.49-3.49-3.49h-7v10.46h20.94v-10.46zm-3.49 8.89a.52.52 0 11.52-.52.52.52 0 01-.52.52zm0-1.57a.52.52 0 11.52-.52.52.52 0 01-.52.52zm0-1.57a.52.52 0 11.52-.52.52.52 0 01-.52.52zm9.07-1.22a.35.35 0 01-.35.35h-4.88a.34.34 0 01-.35-.35v-1h5.58zM115.47 166.51h3.49V170h-3.49zM121.05 166.51h3.49V170h-3.49zM131.16 157.44h1.4v6.98h-1.4zM107.44 157.44h1.4v6.98h-1.4zM134.3 140h-12.56a.69.69 0 00-.69.7v2.79H119v-2.79a.69.69 0 00-.69-.7H105.7a.7.7 0 00-.7.7v12.56a.69.69 0 00.7.69h12.56a.69.69 0 00.69-.69v-2.79h2.1v2.79a.69.69 0 00.69.69h12.56a.69.69 0 00.7-.69V140.7a.7.7 0 00-.7-.7zm-17.09 11.51a.7.7 0 01-.7.7h-9.07a.7.7 0 01-.7-.7v-9.07a.71.71 0 01.7-.7h9.07a.7.7 0 01.7.7zm16 0a.7.7 0 01-.7.7h-9.07a.7.7 0 01-.7-.7v-9.07a.7.7 0 01.7-.7h9.07a.71.71 0 01.7.7z"/><path class="cls-3" d="M128.03 147.76l-2.18-3.62h-.44v4.89h.51v-3.89l1.98 3.27h.25l1.98-3.29v3.91h.51v-4.89h-.44l-2.17 3.62zM111.14 144.82a2.43 2.43 0 011.12-.26 2.12 2.12 0 011.52.57l.34-.32a2.15 2.15 0 00-.82-.53 3.08 3.08 0 00-1.07-.18 2.91 2.91 0 00-1.37.32 2.4 2.4 0 00-1.31 2.17 2.4 2.4 0 00.35 1.27 2.43 2.43 0 001 .89 2.91 2.91 0 001.37.32 3.2 3.2 0 001-.16 2.63 2.63 0 00.84-.46v-1.86h-.52v1.64a2.45 2.45 0 01-2.43.11 1.85 1.85 0 01-.77-.72 2 2 0 01.77-2.8z"/></g><path d="M284 173.33l-84 .67-84-.67c-.55 0-1-.15-1-.33 0-.18.45-.33 1-.33l84-.67 84 .67c.55 0 1 .15 1 .33 0 .18-.45.33-1 .33z" fill="#404040" opacity=".8"/></svg>