<svg id="Слой_1" data-name="Слой 1" xmlns="http://www.w3.org/2000/svg" viewBox="0 0 400 200"><defs><style>.cls-1{fill:#a1b333}.cls-2,.cls-4{opacity:.8}.cls-3,.cls-4{fill:#404040}</style></defs><path class="cls-1" d="M0 0h400v200H0z"/><g class="cls-2"><path class="cls-3" d="M248 174.63l-48 2-48-2a2 2 0 01-2-2v-46a2 2 0 012-2c17 1 32 2 48 2s31-1 48-2a2.06 2.06 0 011.41.59 2 2 0 01.59 1.41v46a2 2 0 01-2 2z"/></g><g class="cls-2"><path class="cls-3" d="M238 119.63c-13 1-25.31 2-38 2s-25-1-38-2a2.08 2.08 0 01-1.41-.58 2 2 0 01-.59-1.42v-36a2 2 0 012-2c14 1 25.33 2 38 2s25-1 38-2a2.06 2.06 0 011.41.59 2 2 0 01.59 1.41v36a2.05 2.05 0 01-2 2z"/></g><g class="cls-2"><path class="cls-3" d="M226.39 74.81A245.48 245.48 0 01200 76.63c-9.39 0-18-1-28-2a2.08 2.08 0 01-1.41-.58 2 2 0 01-.59-1.42v-26a2 2 0 012-2 278 278 0 0028 1c9.33 0 19 0 28-1a2 2 0 011.41.59 2 2 0 01.59 1.41v24.15a4 4 0 01-3.61 4.03z"/></g><circle class="cls-1" cx="180" cy="54.63" r="4"/><circle class="cls-1" cx="185" cy="69.63" r="4"/><circle class="cls-1" cx="215" cy="54.63" r="4"/><circle class="cls-1" cx="170" cy="104.63" r="4"/><circle class="cls-1" cx="185" cy="89.63" r="4"/><circle class="cls-1" cx="210" cy="94.63" r="4"/><circle class="cls-1" cx="230" cy="109.63" r="4"/><circle class="cls-1" cx="240" cy="134.63" r="4"/><circle class="cls-1" cx="190" cy="154.63" r="4"/><circle class="cls-1" cx="165" cy="139.63" r="4"/><circle class="cls-1" cx="165" cy="164.63" r="4"/><circle class="cls-1" cx="230" cy="164.63" r="4"/><circle class="cls-1" cx="210" cy="136.63" r="4"/><circle class="cls-1" cx="195" cy="102.63" r="2.5"/><circle class="cls-1" cx="225" cy="89.63" r="2.5"/><circle class="cls-1" cx="200" cy="114.63" r="2.5"/><circle class="cls-1" cx="220" cy="69.63" r="2.5"/><circle class="cls-1" cx="200" cy="59.63" r="2.5"/><circle class="cls-1" cx="190" cy="134.63" r="2.5"/><circle class="cls-1" cx="230" cy="146.63" r="2.5"/><circle class="cls-1" cx="205" cy="154.63" r="2.5"/><path class="cls-4" d="M191.06 40.63H209a1.35 1.35 0 001.3-1l3.21-10.29a1.35 1.35 0 00-2.2-1.4l-5.66 5.15a1.36 1.36 0 01-2.22-.65l-2.17-8.12a1.35 1.35 0 00-2.61 0l-2.05 7.2a1.36 1.36 0 01-2.21.63l-5.1-4.58a1.35 1.35 0 00-2.22 1.33l2.67 10.68a1.36 1.36 0 001.32 1.05zM257.75 61.66L263.69 51a2 2 0 000-1.9l-5.94-10.71a2 2 0 012.05-2.9l12.87 2.09a2 2 0 001.7-.53l9.19-8.94a2 2 0 013.33 1.11l1.87 12.19a2 2 0 001.11 1.48l11.49 5.38a2 2 0 010 3.56l-11.49 5.38a2 2 0 00-1.11 1.48l-1.87 12.19a2 2 0 01-3.33 1.11L274.37 63a2 2 0 00-1.7-.53l-12.87 2.09a2 2 0 01-2.05-2.9zM134.83 42.22l-4 7.14a1.32 1.32 0 000 1.28l4 7.14a1.32 1.32 0 01-1.36 1.93l-8.58-1.4a1.3 1.3 0 00-1.13.36l-6.13 6a1.32 1.32 0 01-2.22-.75l-1.25-8.12a1.3 1.3 0 00-.74-1l-7.66-3.58a1.31 1.31 0 010-2.38l7.66-3.58a1.3 1.3 0 00.74-1l1.25-8.12a1.32 1.32 0 012.22-.75l6.13 6a1.3 1.3 0 001.13.36l8.58-1.4a1.32 1.32 0 011.36 1.87zM128.29 159l-10.79.19a1.71 1.71 0 00-1.45.83l-5.56 9.17a1.75 1.75 0 01-3.12-.29l-4.07-10.64a1.76 1.76 0 00-1.16-1.05l-10.87-3.05a1.72 1.72 0 01-.62-3l8.48-6.73a1.72 1.72 0 00.64-1.49l-1-11a1.74 1.74 0 012.72-1.56l9.17 6.35a1.75 1.75 0 001.63.19l10.12-3.9a1.73 1.73 0 012.31 2L122 145.83a1.73 1.73 0 00.34 1.52l7.27 8.82a1.72 1.72 0 01-1.32 2.83zM295.61 138.57l.12 6.74a1.08 1.08 0 00.52.91l5.75 3.48a1.09 1.09 0 01-.18 1.94l-6.65 2.55a1.08 1.08 0 00-.66.72l-1.9 6.8a1.08 1.08 0 01-1.88.38l-4.21-5.29a1.05 1.05 0 00-.93-.41l-6.9.6a1.08 1.08 0 01-1-1.7l4-5.73a1.07 1.07 0 00.12-1l-2.44-6.33a1.09 1.09 0 011.27-1.45l6.79 1.73a1 1 0 00.94-.21l5.52-4.54a1.07 1.07 0 011.72.81z"/></svg>