<svg id="Слой_1" data-name="Слой 1" xmlns="http://www.w3.org/2000/svg" viewBox="0 0 400 200"><defs><style>.cls-4{fill:#404040}.cls-3{opacity:.8}</style></defs><path fill="#a1b333" d="M0 0h400v200H0z"/><path d="M268.19 173.27l-68.19.54-68.19-.54c-.45 0-.81-.12-.81-.27 0-.15.36-.27.81-.27l68.19-.54 68.19.54c.45 0 .81.12.81.27 0 .15-.36.27-.81.27z" opacity=".8" fill="#404040"/><g class="cls-3"><path class="cls-4" d="M181.35 147.53l-5.35 5.35-5.35-5.35H160v16.05h32.1v-16.05zM176 161.17a.8.8 0 11.8-.8.8.8 0 01-.8.8zm0-2.4a.81.81 0 11.8-.8.8.8 0 01-.8.8zm0-2.41a.8.8 0 11.8-.8.8.8 0 01-.8.8zm13.91-1.87a.54.54 0 01-.54.53h-7.49a.53.53 0 01-.53-.53v-1.61h8.56zM169.05 164.65h5.35V170h-5.35zM177.6 164.65h5.35V170h-5.35zM193.12 150.74h2.14v10.7h-2.14zM156.74 150.74h2.14v10.7h-2.14zM197.93 124h-19.26a1.07 1.07 0 00-1.07 1.07v4.28h-3.2v-4.28a1.07 1.07 0 00-1.07-1.07h-19.26a1.07 1.07 0 00-1.07 1.07v19.26a1.07 1.07 0 001.07 1.07h19.26a1.07 1.07 0 001.07-1.07v-4.28h3.2v4.28a1.07 1.07 0 001.07 1.07h19.26a1.07 1.07 0 001.07-1.07v-19.26a1.07 1.07 0 00-1.07-1.07zm-26.21 17.65a1.07 1.07 0 01-1.07 1.07h-13.91a1.07 1.07 0 01-1.07-1.07v-13.91a1.07 1.07 0 011.07-1.07h13.91a1.07 1.07 0 011.07 1.07zm24.61 0a1.07 1.07 0 01-1.07 1.07h-13.91a1.07 1.07 0 01-1.07-1.07v-13.91a1.07 1.07 0 011.07-1.07h13.91a1.07 1.07 0 011.07 1.07z"/><path class="cls-4" d="M188.32 135.91l-3.35-5.56h-.68v7.49h.78v-5.96l3.04 5.01h.39l3.03-5.04v5.99h.78v-7.49h-.67l-3.32 5.56zM162.42 131.4a3.58 3.58 0 011.7-.4 3.3 3.3 0 012.35.87l.51-.5a3.3 3.3 0 00-1.26-.81 4.72 4.72 0 00-1.63-.27 4.44 4.44 0 00-2.11.49 3.71 3.71 0 00-1.46 1.37 3.73 3.73 0 001.46 5.26 4.4 4.4 0 002.1.5 5.11 5.11 0 001.57-.25 3.85 3.85 0 001.29-.71v-2.85h-.79v2.52a3.81 3.81 0 01-3.74.17 3.08 3.08 0 01-1.18-1.11 3 3 0 011.19-4.28z"/></g><g class="cls-3"><path class="cls-4" d="M217.05 164.65h5.35V170h-5.35zM225.6 164.65h5.35V170h-5.35zM245.93 124h-19.26a1.07 1.07 0 00-1.07 1.07v4.28h-3.2v-4.28a1.07 1.07 0 00-1.07-1.07h-19.26a1.07 1.07 0 00-1.07 1.07v19.26a1.07 1.07 0 001.07 1.07h19.26a1.07 1.07 0 001.07-1.07v-4.28h3.2v4.28a1.07 1.07 0 001.07 1.07h19.26a1.07 1.07 0 001.07-1.07v-19.26a1.07 1.07 0 00-1.07-1.07zm-26.21 17.65a1.07 1.07 0 01-1.07 1.07h-13.91a1.07 1.07 0 01-1.07-1.07v-13.91a1.07 1.07 0 011.07-1.07h13.91a1.07 1.07 0 011.07 1.07zm24.61 0a1.07 1.07 0 01-1.07 1.07h-13.91a1.07 1.07 0 01-1.07-1.07v-13.91a1.07 1.07 0 011.07-1.07h13.91a1.07 1.07 0 011.07 1.07z"/><path class="cls-4" d="M236.32 135.91l-3.35-5.56h-.68v7.49h.78v-5.96l3.04 5.01h.39l3.03-5.04v5.99h.78v-7.49h-.67l-3.32 5.56zM210.42 131.4a3.58 3.58 0 011.7-.4 3.3 3.3 0 012.35.87l.51-.5a3.3 3.3 0 00-1.26-.81 4.72 4.72 0 00-1.63-.27 4.44 4.44 0 00-2.11.49 3.71 3.71 0 00-1.46 1.37 3.73 3.73 0 001.46 5.26 4.4 4.4 0 002.1.5 5.11 5.11 0 001.57-.25 3.85 3.85 0 001.29-.71v-2.85h-.79v2.52a3.81 3.81 0 01-3.74.17 3.08 3.08 0 01-1.18-1.11 3 3 0 011.19-4.28zM229.35 147.53l-5.35 5.35-5.35-5.35L208 163.58h32.1l-10.7-16.05zM224 161.17a.8.8 0 11.8-.8.8.8 0 01-.8.8zm0-2.4a.81.81 0 11.8-.8.8.8 0 01-.8.8zm0-2.41a.8.8 0 11.8-.8.8.8 0 01-.8.8z"/><path class="cls-4" transform="rotate(34 210.635 155.562)" d="M209.56 150.21h2.14v10.7h-2.14z"/><path class="cls-4" transform="rotate(-34 237.397 155.467)" d="M236.33 150.11h2.14v10.7h-2.14z"/></g><g class="cls-3"><path class="cls-4" d="M131.47 166.53h3.49V170h-3.49zM137.05 166.53h3.49V170h-3.49zM150.3 140.15h-12.56a.69.69 0 00-.69.69v2.78H135v-2.78a.69.69 0 00-.69-.69H121.7a.69.69 0 00-.7.69v12.5a.69.69 0 00.7.69h12.56a.69.69 0 00.69-.69v-2.78h2.1v2.78a.69.69 0 00.69.69h12.56a.69.69 0 00.7-.69v-12.5a.69.69 0 00-.7-.69zm-17.09 11.45a.7.7 0 01-.7.7h-9.07a.7.7 0 01-.7-.7v-9a.71.71 0 01.7-.7h9.07a.7.7 0 01.7.7zm16 0a.7.7 0 01-.7.7h-9.07a.7.7 0 01-.7-.7v-9a.7.7 0 01.7-.7h9.07a.71.71 0 01.7.7z"/><path class="cls-4" d="M144.03 147.88l-2.18-3.61h-.44v4.86h.51v-3.86l1.98 3.24h.25l1.98-3.26v3.88h.51v-4.86h-.44l-2.17 3.61zM127.14 145a2.43 2.43 0 011.12-.26 2.12 2.12 0 011.52.57l.34-.33a2.25 2.25 0 00-.82-.52 3.08 3.08 0 00-1.07-.18 2.91 2.91 0 00-1.37.32 2.4 2.4 0 00-1.31 2.15 2.4 2.4 0 00.35 1.27 2.34 2.34 0 001 .88 2.8 2.8 0 001.37.32 3.2 3.2 0 001-.16 2.43 2.43 0 00.84-.45v-1.91h-.52v1.64a2.45 2.45 0 01-2.43.11 1.85 1.85 0 01-.77-.72 2 2 0 010-2.06 1.85 1.85 0 01.75-.67zM139.49 155.42l-3.49 3.47-3.49-3.47-7 10.41h20.94l-7-10.41zm-3.49 8.85a.52.52 0 11.52-.52.52.52 0 01-.52.52zm0-1.56a.52.52 0 11.52-.52.52.52 0 01-.52.52zm0-1.56a.52.52 0 11.52-.52.52.52 0 01-.52.52zM125.91 163.9l-1.16-.78 3.91-5.75 1.15.77-3.9 5.76zM147.27 163.06l-1.16.77-3.9-5.75 1.16-.78 3.9 5.76z"/><rect class="cls-4" x="134.26" y="135.09" width="3.49" height="3.47" rx="1.45" ry="1.45"/><path class="cls-4" d="M133.43 135.9l-3.59-1.79a1 1 0 00-1.51.93v3.57a1 1 0 001.51.94l3.59-1.79a1 1 0 000-1.86zM138.57 135.9l3.59-1.79a1 1 0 011.51.93v3.57a1 1 0 01-1.51.94l-3.59-1.79a1 1 0 010-1.86z"/></g><g class="cls-3"><path class="cls-4" d="M267.49 155.46l-3.49 3.46-3.49-3.46h-7v10.39h20.94v-10.39zm-3.49 8.83a.52.52 0 11.52-.52.52.52 0 01-.52.52zm0-1.56a.52.52 0 11.52-.52.52.52 0 01-.52.52zm0-1.56a.52.52 0 01-.52-.52.52.52 0 111 0 .52.52 0 01-.48.52zm9.07-1.21a.35.35 0 01-.35.35h-4.88a.35.35 0 01-.35-.35v-1h5.58zM259.47 166.54h3.49V170h-3.49zM265.05 166.54h3.49V170h-3.49zM275.16 157.54h1.4v6.92h-1.4zM251.44 157.54h1.4v6.92h-1.4zM278.3 140.23h-12.56a.69.69 0 00-.69.69v2.77H263v-2.77a.69.69 0 00-.69-.69H249.7a.69.69 0 00-.7.69v12.46a.7.7 0 00.7.7h12.56a.69.69 0 00.69-.7v-2.76h2.1v2.76a.69.69 0 00.69.7h12.56a.7.7 0 00.7-.7v-12.46a.69.69 0 00-.7-.69zm-17.09 11.42a.7.7 0 01-.7.7h-9.07a.7.7 0 01-.7-.7v-9a.7.7 0 01.7-.69h9.07a.69.69 0 01.7.69zm16.05 0a.7.7 0 01-.7.7h-9.07a.7.7 0 01-.7-.7v-9a.69.69 0 01.7-.69h9.07a.7.7 0 01.7.69z"/><path class="cls-4" d="M272.03 147.94l-2.18-3.6h-.44v4.85h.51v-3.86l1.98 3.24h.25l1.98-3.26v3.88h.51v-4.85h-.44l-2.17 3.6zM255.14 145a2.43 2.43 0 011.12-.26 2.12 2.12 0 011.52.57l.34-.33a2.25 2.25 0 00-.82-.52 3.08 3.08 0 00-1.07-.18 2.91 2.91 0 00-1.37.32 2.43 2.43 0 00-1 3.41 2.34 2.34 0 001 .88 2.91 2.91 0 001.37.32 3.2 3.2 0 001-.16 2.45 2.45 0 00.84-.46v-1.84h-.52v1.63a2.52 2.52 0 01-2.43.11 1.85 1.85 0 01-.77-.72 1.89 1.89 0 01-.29-1 1.93 1.93 0 01.29-1 1.85 1.85 0 01.79-.77z"/><rect class="cls-4" x="263.3" y="134" width="1.4" height="4.15" rx=".7" ry=".7"/><path class="cls-4" d="M262.69 138.58a.71.71 0 01-1 0l-2-2a.69.69 0 010-1 .71.71 0 011 0l2 1.95a.69.69 0 010 1.05zM265.31 138.58a.69.69 0 010-1l2-1.95a.71.71 0 011 0 .69.69 0 010 1l-2 2a.71.71 0 01-1-.05z"/></g></svg>