<svg id="Слой_1" data-name="Слой 1" xmlns="http://www.w3.org/2000/svg" viewBox="0 0 300 300"><defs><style>.cls-2{fill:#515a1a}</style></defs><rect width="300" height="300" rx="30" fill="#a1b333"/><path class="cls-2" d="M22.1 267.21a13.28 13.28 0 01-5.21-5 14.77 14.77 0 010-14.46 13.28 13.28 0 015.21-5 15.52 15.52 0 017.48-1.75 15.86 15.86 0 016.55 1.31 12.68 12.68 0 014.87 3.77l-4.77 4.38a7.82 7.82 0 00-6.23-3.15 7.67 7.67 0 00-3.85 1A6.62 6.62 0 0023.5 251a9.15 9.15 0 000 8 6.62 6.62 0 002.61 2.71 7.67 7.67 0 003.85 1 7.82 7.82 0 006.25-3.15l4.79 4.36a12.68 12.68 0 01-4.85 3.77 15.86 15.86 0 01-6.57 1.31 15.52 15.52 0 01-7.48-1.79z"/><path d="M44.31 241.54h7.5v26.92h-7.5z" fill="#ff7847"/><path class="cls-2" d="M62.79 247.58h-8.14v-6h23.74v6h-8.1v20.88h-7.5zM92.78 261.31h-4.09v7.15h-7.5v-26.92h12.12a14.89 14.89 0 016.25 1.21 9.3 9.3 0 014.09 3.46 9.59 9.59 0 011.44 5.29 9.47 9.47 0 01-1.35 5.1 9 9 0 01-3.84 3.4l5.72 8.46h-8zm3.56-12.73a5.06 5.06 0 00-3.48-1h-4.17v7.88h4.17a5.16 5.16 0 003.48-1 3.63 3.63 0 001.17-2.9 3.69 3.69 0 00-1.17-2.98zM112.26 265.73q-3.27-3.27-3.27-9.27v-14.92h7.5v14.69q0 6.47 5 6.46c3.34 0 5-2.15 5-6.46v-14.69h7.39v14.92q0 6-3.28 9.27t-9.15 3.27q-5.91 0-9.19-3.27zM142.05 268.19a15.34 15.34 0 01-4.93-2.15l2.47-5.62a16.45 16.45 0 008.74 2.66q4.32 0 4.32-2.2a1.82 1.82 0 00-1.23-1.71 22.53 22.53 0 00-4-1.17 38.31 38.31 0 01-5-1.4 8.49 8.49 0 01-3.44-2.41 6.55 6.55 0 01-1.44-4.46 7.83 7.83 0 011.32-4.44 9 9 0 014-3.14 16.09 16.09 0 016.46-1.15 22.31 22.31 0 015.15.6 15.45 15.45 0 014.47 1.75l-2.31 5.65a15.35 15.35 0 00-7.35-2.08 6.09 6.09 0 00-3.26.68 2 2 0 00-1 1.75 1.73 1.73 0 001.21 1.61 22.06 22.06 0 003.9 1.12 35.17 35.17 0 015 1.4 8.72 8.72 0 013.45 2.38 6.48 6.48 0 011.46 4.45 7.69 7.69 0 01-1.33 4.38 9.08 9.08 0 01-4 3.14 15.85 15.85 0 01-6.41 1.17 24.08 24.08 0 01-6.25-.81zM192.87 242.75a9.36 9.36 0 014.09 3.46 10.4 10.4 0 010 10.56 9.38 9.38 0 01-4.09 3.44 14.89 14.89 0 01-6.25 1.21H182v7h-7.5v-26.88h12.12a14.89 14.89 0 016.25 1.21zm-3.22 11.65a3.63 3.63 0 001.17-2.9 3.69 3.69 0 00-1.17-2.92 5.11 5.11 0 00-3.49-1H182v7.88h4.16a5.21 5.21 0 003.49-1.06zM218.47 263.23h-11.21l-2.09 5.23h-7.65l11.71-26.92h7.38l11.74 26.92h-7.8zm-2.2-5.61l-3.41-8.62-3.41 8.62zM242.06 261.31H238v7.15h-7.5v-26.92h12.12a14.89 14.89 0 016.25 1.21 9.36 9.36 0 014.09 3.46 9.67 9.67 0 011.43 5.29 9.47 9.47 0 01-1.34 5.1 9.17 9.17 0 01-3.84 3.4l5.71 8.46h-8zm3.56-12.73a5.11 5.11 0 00-3.49-1H238v7.88h4.16a5.21 5.21 0 003.49-1 3.63 3.63 0 001.17-2.9 3.69 3.69 0 00-1.2-2.98zM268.72 258.69l-2.81 3v6.73h-7.42v-26.88h7.42v11.19l10.27-11.19h8.25l-10.83 11.92 11.4 15h-8.71zM102 151.9a1 1 0 00.65-1.69 54 54 0 01-15.42-33.4c-.13-1.53-.21-3.06-.21-4.62s.07-3.11.2-4.64a53.85 53.85 0 0111.89-29.4 54.79 54.79 0 018-8 53.85 53.85 0 0129.4-11.89c1.52-.12 3.05-.21 4.61-.21s3.11.07 4.63.21a53.72 53.72 0 0129.38 11.9 54.35 54.35 0 0116.48 22.71 1 1 0 001.52.45c3.08-2.29 6.48-4.61 10.13-6.85a1 1 0 00.4-1.25A68 68 0 00198.14 75a14.17 14.17 0 003.27-14.65 13.81 13.81 0 00-13.26-9.26h-.06a13.91 13.91 0 00-9.77 4.07 67.58 67.58 0 00-23.21-9.63v-.55a14 14 0 00-14-13.94H141a14 14 0 00-13.9 14.08v.36a67.64 67.64 0 00-23.2 9.63 14 14 0 00-9.9-4.06 13.83 13.83 0 00-13.18 9.36A14.16 14.16 0 0084.09 75a68.13 68.13 0 00-9.62 23.23h-.54a13.85 13.85 0 00-13.25 9.58 14.08 14.08 0 0013.43 18.49h.36A67.81 67.81 0 0085 150.8a1 1 0 00.72.43 97 97 0 0016.28.67z"/><path class="cls-2" d="M141.19 126.14a14 14 0 00-.12-28H141a14 14 0 10.18 28z"/><path class="cls-2" d="M179.89 119.86c-11.63 11.84-41.44 40-67 45.81-19.69 4.48-46.64-1.38-66.52-10a1 1 0 00-1.4.92v11.79a1 1 0 00.6.92 156 156 0 0024.4 8V192a1 1 0 01-1 1H51a1 1 0 00-1 1v12a1 1 0 001 1h118a1 1 0 011 1v12a1 1 0 001 1h78a1 1 0 001-1v-44.08a10 10 0 00-5.8-9.08l-7.62-3.53a1 1 0 01-.58-.9v-59.95c-1.09.3-2.18.63-3.26 1A65.76 65.76 0 01254 100a1 1 0 001-1V87a1 1 0 00-1-1c-31.56-.8-62.22 21.74-74.11 33.86zm16 4.16A120.34 120.34 0 01222 107.61V155a1 1 0 01-1.42.91l-6.38-3a10 10 0 00-8.4 0l-6.38 3A1 1 0 01198 155v-32.7c-.73.57-1.44 1.15-2.13 1.7zm-4.58 4.07c-.56.53-1.1 1.06-1.6 1.57l-1.37 1.39 1.37-1.39c.48-.51 1.02-1.04 1.58-1.57zm4.18-3.74a88.272 88.272 0 00-3.76 3.35c1.13-1.09 2.39-2.21 3.74-3.35zM107 193H85a1 1 0 01-1-1v-12.09A110 110 0 0098.92 181a89.62 89.62 0 009.08-.45V192a1 1 0 01-1 1zm-33.68-15h.14zm39 2H112zm1.68-.29l1.94-.41zm5.09-1.22h-.17zM145 193h-22a1 1 0 01-1-1v-14.42a110.81 110.81 0 0024-11.69V192a1 1 0 01-1 1zm11.86-34.52l-.59.43zm-3.68 2.64l-.08.06zM169 193h-8a1 1 0 01-1-1v-35.87a274.86 274.86 0 0024-20.82v27.1a1 1 0 01-.58.9l-7.62 3.53a10 10 0 00-5.8 9.08V192a1 1 0 01-1 1zm18.14-60.77l-.19.19zM235 207h-10.55a1 1 0 01-.75-.34l-12.19-13.94a2 2 0 00-3 0l-12.21 13.94a1 1 0 01-.75.34H185a1 1 0 01-1-1v-23.69a6 6 0 013.48-5.45l20-9.26a6 6 0 015 0l20 9.26a6 6 0 013.48 5.45V206a1 1 0 01-.96 1zm-9.26-101q3.13-1.29 6.35-2.34-3.21 1.04-6.35 2.34zm-3.74 1.61z"/></svg>