<?xml version="1.0" standalone="no"?>
<!DOCTYPE svg PUBLIC "-//W3C//DTD SVG 20010904//EN"
 "http://www.w3.org/TR/2001/REC-SVG-20010904/DTD/svg10.dtd">
<svg version="1.0" xmlns="http://www.w3.org/2000/svg"
 width="700.000000pt" height="700.000000pt" viewBox="0 0 700.000000 700.000000"
 preserveAspectRatio="xMidYMid meet">
<metadata>
Created by potrace 1.14, written by Peter Selinger 2001-2017
</metadata>
<g transform="translate(0.000000,700.000000) scale(0.100000,-0.100000)"
fill="#000000" stroke="none">
<path d="M3193 6262 c-128 -46 -209 -144 -228 -275 -6 -41 -11 -48 -34 -53
-121 -25 -388 -135 -472 -195 -27 -19 -27 -19 -85 16 -76 46 -124 58 -206 52
-257 -18 -388 -304 -239 -521 26 -38 28 -43 14 -61 -56 -74 -166 -335 -193
-456 l-13 -56 -54 -6 c-115 -12 -231 -107 -269 -221 -24 -71 -15 -185 18 -251
49 -96 153 -169 257 -182 l48 -5 13 -57 c27 -126 123 -345 202 -465 22 -33 43
-53 63 -58 17 -5 109 -9 205 -11 206 -2 211 1 134 86 -149 165 -255 383 -300
615 -25 127 -23 338 5 470 55 265 173 476 369 664 433 416 1099 465 1592 117
168 -118 331 -317 416 -504 22 -49 44 -85 52 -85 13 0 272 168 272 175 0 12
-47 108 -85 173 l-45 80 34 51 c137 203 2 489 -240 509 -80 6 -153 -12 -216
-54 l-50 -34 -87 49 c-126 72 -284 134 -423 165 -24 5 -28 11 -28 41 0 95 -87
222 -184 270 -73 35 -172 42 -243 17z"/>
<path d="M5743 4989 c-348 -33 -735 -183 -1094 -421 -195 -130 -293 -211 -520
-429 -469 -451 -826 -720 -1172 -884 -239 -113 -403 -149 -682 -149 -334 0
-692 71 -1039 205 -72 28 -142 52 -156 52 l-25 2 -3 -156 -2 -157 67 -27 c128
-51 343 -122 471 -155 l42 -11 -2 -177 -3 -177 -219 -3 c-141 -1 -224 -6 -233
-13 -10 -9 -13 -47 -13 -153 0 -77 4 -147 8 -153 6 -10 301 -13 1398 -15
l1389 -3 3 -149 c1 -90 7 -155 14 -163 16 -20 1840 -19 1857 1 9 11 11 153 9
558 -3 507 -4 545 -22 578 -35 66 -78 101 -193 155 l-113 54 0 705 0 704 69
16 c101 23 197 36 273 36 104 0 98 -11 98 170 0 135 -2 159 -16 164 -19 7 -83
6 -191 -5z m-563 -1063 c0 -443 -3 -555 -13 -559 -7 -3 -58 16 -112 41 -136
63 -174 63 -310 0 -54 -25 -105 -44 -112 -41 -10 4 -13 85 -13 392 l0 386 90
65 c134 97 427 268 463 270 4 0 7 -249 7 -554z m-890 -412 l0 -315 -112 -54
c-116 -54 -160 -90 -194 -155 -16 -30 -19 -65 -22 -262 l-4 -228 -109 0 -109
0 0 429 0 429 98 78 c95 77 267 227 387 338 33 30 61 55 63 56 1 0 2 -142 2
-316z m-890 -704 l0 -310 -272 2 -273 3 -3 175 -2 175 77 29 c102 37 299 132
393 189 41 25 76 46 78 46 1 1 2 -139 2 -309z m1742 191 c289 -133 316 -147
338 -184 19 -30 20 -49 18 -337 l-3 -305 -132 -3 -132 -3 -147 168 c-81 92
-155 172 -165 177 -11 5 -27 5 -38 0 -10 -5 -84 -85 -165 -177 l-147 -168
-132 3 -132 3 0 319 0 319 35 29 c19 16 118 67 220 115 307 142 312 144 350
139 19 -2 124 -45 232 -95z m-2987 -221 c77 -5 191 -7 253 -3 l113 6 -3 -139
-3 -139 -275 0 -275 0 -3 148 -3 149 28 -6 c16 -3 91 -10 168 -16z"/>
<path d="M3173 4690 c-172 -69 -259 -281 -180 -442 82 -168 279 -239 441 -159
126 62 192 173 184 311 -8 126 -73 227 -183 280 -70 34 -190 38 -262 10z"/>
<path d="M597 1370 c-94 -24 -182 -95 -221 -179 -31 -68 -30 -217 3 -283 32
-66 93 -125 159 -156 49 -23 70 -27 152 -27 81 0 103 4 150 26 30 14 70 40 89
58 l34 32 -54 49 c-30 27 -58 49 -63 50 -4 0 -21 -11 -38 -25 -113 -95 -278
-16 -278 133 0 151 165 232 278 137 17 -14 34 -25 38 -25 5 1 33 23 63 50 l54
49 -34 32 c-75 70 -225 106 -332 79z"/>
<path d="M3375 1367 c-114 -38 -157 -87 -163 -183 -7 -112 37 -156 204 -200
133 -35 160 -53 135 -93 -22 -35 -166 -29 -242 9 -21 11 -42 20 -47 20 -5 0
-21 -28 -36 -62 -32 -73 -29 -78 58 -109 85 -30 207 -36 281 -14 139 39 205
149 157 258 -27 61 -74 90 -197 123 -55 14 -108 30 -117 35 -26 14 -23 56 5
71 32 18 126 12 188 -11 30 -12 55 -21 55 -21 2 0 54 129 54 134 0 3 -26 14
-57 26 -73 27 -220 36 -278 17z"/>
<path d="M1277 1363 c-4 -3 -7 -37 -7 -75 l0 -68 95 0 95 0 2 -242 3 -243 88
-3 87 -3 0 246 0 245 95 0 95 0 0 75 0 75 -273 0 c-151 0 -277 -3 -280 -7z"/>
<path d="M1890 1051 l0 -321 90 0 90 0 0 85 0 85 48 0 47 -1 56 -82 55 -82 92
-3 c51 -1 92 1 92 6 0 5 -28 50 -61 100 l-62 90 37 33 c60 52 79 99 74 185 -4
95 -37 145 -123 189 -58 30 -60 30 -247 34 l-188 3 0 -321z m361 140 c20 -25
25 -81 9 -111 -13 -25 -62 -40 -131 -40 l-59 0 0 91 0 91 81 -4 c70 -3 83 -6
100 -27z"/>
<path d="M2542 1148 c3 -208 5 -226 26 -274 47 -104 127 -149 267 -149 105 0
160 20 218 80 63 64 72 110 72 350 l0 210 -87 3 -87 3 -3 -208 c-2 -175 -6
-213 -21 -240 -22 -41 -74 -57 -130 -42 -31 8 -42 18 -58 52 -16 37 -19 67
-19 240 l0 197 -91 0 -90 0 3 -222z"/>
<path d="M4070 1050 l0 -320 90 0 90 0 0 85 0 85 90 0 c107 0 180 23 228 72
67 70 82 175 37 265 -52 103 -137 133 -377 133 l-158 0 0 -320z m333 159 c50
-23 61 -91 23 -136 -21 -25 -31 -28 -100 -31 l-76 -4 0 91 0 91 65 0 c35 0 75
-5 88 -11z"/>
<path d="M4842 1278 c-179 -409 -232 -533 -232 -540 0 -4 40 -8 89 -8 l89 0
24 60 23 60 131 0 131 0 26 -60 26 -60 91 0 c84 0 92 2 85 18 -3 9 -66 153
-138 319 l-132 303 -86 0 -87 0 -40 -92z m162 -189 c20 -50 35 -93 33 -96 -3
-2 -36 -3 -75 -1 l-70 3 37 92 c20 51 37 93 37 93 1 0 18 -41 38 -91z"/>
<path d="M5380 1051 l0 -322 88 3 87 3 3 83 3 82 43 0 c42 0 43 -1 101 -85
l58 -85 94 0 c51 0 93 2 93 5 0 3 -30 48 -66 101 -70 100 -69 97 -22 125 29
16 68 94 75 147 12 102 -40 187 -142 234 -45 20 -68 23 -232 26 l-183 4 0
-321z m330 156 c36 -18 54 -62 43 -101 -12 -42 -61 -66 -135 -66 l-58 0 0 90
0 90 63 0 c34 0 73 -6 87 -13z"/>
<path d="M6030 1050 l0 -321 88 3 87 3 3 80 c3 71 6 83 29 107 15 16 30 28 33
28 4 0 46 -49 93 -110 l87 -110 100 0 c55 0 100 3 100 6 0 3 -55 78 -123 167
-68 89 -127 167 -130 174 -5 7 40 64 113 144 66 73 120 136 120 141 0 4 -42 8
-93 8 l-92 0 -115 -127 -115 -126 -5 124 -5 124 -87 3 -88 3 0 -321z"/>
<path d="M1040 1050 l0 -310 85 0 85 0 0 310 0 310 -85 0 -85 0 0 -310z"/>
</g>
</svg>
