<svg id="Слой_1" data-name="Слой 1" xmlns="http://www.w3.org/2000/svg" viewBox="0 0 1000 500"><defs><style>.cls-3{fill:#827d41}.cls-4{fill:#a1b333}.cls-5{fill:#fff}.cls-7{fill:#515a1a}</style></defs><path fill="#d0e8fc" d="M0 0h1000v500H0z"/><path fill="#787341" d="M0 488.9l100-77.3 40-66.6 199 116.62L471.4 500H0v-11.1z"/><path class="cls-3" d="M234 400l90-118 34 14 84.04-107.22L842.01 500H471.4L339 461.62 234 400z"/><path class="cls-3" d="M549.57 272.45L817 114l183 111.16V500H842.01L549.57 272.45z"/><path class="cls-4" d="M817 114l39 61 36 13-44 3 34.18 67.25L924 277l-26 7 102 82.88V225.16L817 114zM842.01 500L549.57 332.78l-78.17-33.35H500L462 280l-17.13-39.56L456 230h-17.95l3.99-41.22L842.01 500zM324 282l-12 32 19 7-5 7 44 35 52 12-64-79-34-14zM339 461.62l-78.3-39.12L197 413l-38-18-7-13 14 1-17-11 5-5-15-7 5-4-4-11 199 116.62z"/><path class="cls-5" d="M344.25 232H150.86l29.39-6-7-14 25-2 9-24 37-8 17 19 18-10 25 4 10 24 17-2v10l37.89 9h-24.89zM109.04 396.54H5.55L31 391l-1-6 14-11 11 7 17-13 16-2 7 11 15 2 5.42 6.92-6.38 10.62zM705.81 180H574l27.77-8.31-3.19-12.82 15.96 2.13 4.26-18.16 14.89-9.62 27.66 8.55 4.98 14.84 26.94-9.5 19.82 9.5 8.97 13.72-16.25 9.67zM51.62 60H190l-30.12-3.08 6.66-4.61-6.66-13.85-18.32-1.54L121.57 20l-16.65 9.23-5 9.23-21.65-4.61-18.32 23.07L30 60h21.62zM392.56 110H505l-24.47-2.38-3.15-9.23-6.59 1.93-5.15-8.19-12.45-11.16-17.59 11.61L422.41 80l-19.79 7.74-8.8 15.49L375 110h17.56zM957.9 77.5H825l20.2-4.33 3.77-9.67 8.6-1.87 8.73-12.13 21.33-7 18.67 12.6 12-7 17.33 5.6 1.65 11.53 15.69 1.07v5.6L975 77.5h-17.1z"/><path d="M507.95 209.87h18a1 1 0 011 1v5a4 4 0 01-4 4h-12a4 4 0 01-4-4v-5a1 1 0 011-1z" transform="rotate(5 516.976 214.82)" fill="#787a80"/><path class="cls-4" d="M546.21 167.24C545 181 531.58 206.11 517.82 204.9s-22.62-28.27-21.42-42a25 25 0 1149.81 4.36z"/><path class="cls-7" d="M503 179.21a1.84 1.84 0 01-.8-1.71 1.75 1.75 0 01.34-.94 1.72 1.72 0 01.75-.61 2.09 2.09 0 011-.15 2.16 2.16 0 01.86.25 1.76 1.76 0 01.59.56l-.68.53a1 1 0 00-.79-.49 1 1 0 00-.53.08.84.84 0 00-.37.33 1 1 0 00-.17.53 1.06 1.06 0 00.07.54.83.83 0 00.32.39 1 1 0 001.36-.17l.59.64a1.8 1.8 0 01-.69.45 2.32 2.32 0 01-.89.1 2.19 2.19 0 01-.96-.33z"/><path d="M506.2 176l1 .09-.32 3.59-1-.09z" fill="#ff7847"/><path class="cls-7" d="M508.58 177.06l-1.08-.06.07-.81 3.16.28-.07.8-1.08-.09-.24 2.79-1-.09zM512.41 179.24h-.55l-.08 1-1-.09.31-3.59 1.61.14a1.93 1.93 0 01.81.24 1.14 1.14 0 01.51.51 1.31 1.31 0 01.13.72 1.38 1.38 0 01-.24.66 1.2 1.2 0 01-.55.41l.66 1.2-1.07-.1zm.62-1.65a.62.62 0 00-.45-.18h-.55l-.1 1 .56.05a.63.63 0 00.47-.1.47.47 0 00.19-.37.45.45 0 00-.15-.4zM514.94 180.06a1.7 1.7 0 01-.32-1.28l.17-2 1 .09-.17 2c0 .58.14.88.59.92s.69-.23.74-.8l.17-2 1 .08-.17 2a1.66 1.66 0 01-.55 1.2 1.6 1.6 0 01-1.25.33 1.63 1.63 0 01-1.21-.54zM518.87 180.73a2.07 2.07 0 01-.63-.34l.4-.72a1.87 1.87 0 00.52.3 1.66 1.66 0 00.61.15q.57.06.6-.24a.25.25 0 00-.15-.24 2.32 2.32 0 00-.51-.2 5 5 0 01-.65-.25 1.14 1.14 0 01-.43-.36.91.91 0 01-.14-.61 1.1 1.1 0 01.23-.58 1.2 1.2 0 01.56-.37 2.19 2.19 0 01.87-.08 3 3 0 01.68.14 1.91 1.91 0 01.57.29l-.37.72a2.07 2.07 0 00-.95-.36.81.81 0 00-.44.05.27.27 0 00-.16.22.23.23 0 00.15.23 2.41 2.41 0 00.5.2 5.1 5.1 0 01.65.24 1.36 1.36 0 01.43.36.86.86 0 01.14.61 1 1 0 01-.22.57 1.21 1.21 0 01-.57.37 2 2 0 01-.87.08 2.87 2.87 0 01-.82-.18zM525.92 177.93a1.29 1.29 0 01.5.51 1.41 1.41 0 01-.12 1.41 1.26 1.26 0 01-.59.41 1.88 1.88 0 01-.84.09h-.61l-.09.93-1-.08.31-3.59 1.61.14a1.88 1.88 0 01.83.18zm-.57 1.52a.46.46 0 00.19-.38.46.46 0 00-.12-.4.67.67 0 00-.45-.18l-.55-.05-.09 1.05h.55a.68.68 0 00.47-.04zM529.08 181l-1.49-.13-.34.67-1-.09 1.87-3.45 1 .08 1.24 3.73-1-.09zm-.23-.77l-.35-1.23-.55 1.11zM532.24 181h-.55l-.08.95-1-.08.32-3.59 1.61.14a1.79 1.79 0 01.81.23 1.25 1.25 0 01.51.51 1.23 1.23 0 01.12.72 1.34 1.34 0 01-.23.67 1.27 1.27 0 01-.55.41l.66 1.19-1.07-.09zm.62-1.66a.72.72 0 00-.45-.18h-.56l-.09 1.06h.55a.69.69 0 00.48-.09.52.52 0 00.19-.38.53.53 0 00-.12-.43zM535.81 180.94l-.41.37-.08.9-1-.09.31-3.59 1 .09-.14 1.49 1.5-1.37 1.09.09-1.57 1.47 1.34 2.13-1.16-.1zM514.91 164.75a.13.13 0 00.11-.21 7.22 7.22 0 01-1.66-4.64v-.62a4.38 4.38 0 01.08-.62 7.17 7.17 0 011.92-3.78 7.58 7.58 0 011.15-1 7.21 7.21 0 014.05-1.25h.61a6 6 0 01.61.08 7.15 7.15 0 014.73 3.09 6.93 6.93 0 011 2.06.14.14 0 00.2.08c.43-.27.91-.54 1.42-.8a.14.14 0 00.07-.16 9.15 9.15 0 00-.61-1.44 1.87 1.87 0 00.6-1.91 1.82 1.82 0 00-1.65-1.39 1.83 1.83 0 00-1.34.43 9.18 9.18 0 00-3-1.56.17.17 0 010-.07 1.87 1.87 0 00-1.71-2 1.86 1.86 0 00-2 1.72 8.82 8.82 0 00-3.2 1 1.88 1.88 0 00-1.26-.66 1.86 1.86 0 00-1.86 1.1 1.91 1.91 0 00.27 2 8.87 8.87 0 00-1.55 3h-.07a1.83 1.83 0 00-1.87 1.12 1.88 1.88 0 001.55 2.68h.05a9.09 9.09 0 001.12 3.41.1.1 0 00.09.06 11.74 11.74 0 002.15.28z"/><path class="cls-7" d="M520.42 161.77a1.88 1.88 0 00.31-3.74 1.88 1.88 0 00-.3 3.74z"/><path class="cls-7" d="M525.63 161.38c-1.68 1.45-6 4.86-9.43 5.34-2.67.37-6.18-.73-8.72-2.12a.14.14 0 00-.2.11l-.13 1.57a.11.11 0 00.07.13 20.56 20.56 0 003.14 1.35l-.17 2a.13.13 0 01-.14.12l-2.39-.21a.14.14 0 00-.15.13l-.14 1.6a.13.13 0 00.12.14l15.68 1.37a.14.14 0 01.12.15l-.14 1.6a.12.12 0 00.12.14l10.36.91a.13.13 0 00.14-.12l.52-5.88a1.36 1.36 0 00-.67-1.28l-1-.56a.14.14 0 01-.06-.13l.7-8-.45.1a8.71 8.71 0 012.86-.21.14.14 0 00.15-.12l.14-1.6a.14.14 0 00-.12-.15c-4.15-.51-8.49 2.14-10.21 3.62zm2.07.74a16.14 16.14 0 013.67-1.88l-.56 6.32a.13.13 0 01-.2.1l-.81-.46a1.3 1.3 0 00-1.12-.1l-.88.32a.14.14 0 01-.18-.14l.39-4.36zm-.65.49l-.23.2-.2.16.2-.16zm.6-.45a6.33 6.33 0 00-.54.41 6.33 6.33 0 01.54-.41zm-12.56 8.13l-2.92-.25a.14.14 0 01-.12-.15l.14-1.61a15.24 15.24 0 002 .32c.41 0 .82.05 1.21.05l-.13 1.52a.13.13 0 01-.18.12zm-4.29-2.39zm5.15.72zm.23 0h.26zm.69-.1zm3.27 2.24l-2.92-.26a.13.13 0 01-.12-.14l.17-1.93a14.64 14.64 0 003.32-1.28l-.3 3.48a.15.15 0 01-.15.11zm2-4.47h-.08zm-.52.31zm1.73 4.44l-1.06-.1a.12.12 0 01-.12-.14l.41-4.79a35.91 35.91 0 003.44-2.5l-.31 3.62a.14.14 0 01-.09.11l-1.05.38a1.36 1.36 0 00-.88 1.15l-.19 2.14a.13.13 0 01-.17.09zm3.12-7.9zm5.48 10.53l-1.4-.12a.15.15 0 01-.09-.06l-1.46-2a.26.26 0 00-.4 0l-1.78 1.71a.15.15 0 01-.11 0l-1.4-.12a.14.14 0 01-.12-.15l.28-3.16a.78.78 0 01.52-.68l2.77-1a.79.79 0 01.67.06l2.57 1.45a.79.79 0 01.4.77l-.27 3.16a.14.14 0 01-.2.12zm0-13.58q.43-.13.87-.24-.5.09-.94.22zm-.51.17l.42-.14z"/></svg>