<svg id="Слой_1" data-name="Слой 1" xmlns="http://www.w3.org/2000/svg" viewBox="0 0 1000 550"><defs><style>.cls-3{fill:#47a4cd}.cls-4{fill:#cff1f2}.cls-5{fill:#fff}.cls-9{opacity:.5;isolation:isolate}</style></defs><path fill="#d0e8fc" d="M0 0h1000v550H0z"/><path fill="#459cba" d="M0 538.9l100-77.3 40-66.6 199 116.62L471.4 550H0v-11.1z"/><path class="cls-3" d="M234 450l90-118 34 14 84.04-107.22L842.01 550H471.4L339 511.62 234 450z"/><path class="cls-3" d="M549.57 322.45L817 164l183 111.16V550H842.01L549.57 322.45z"/><path class="cls-4" d="M817 164l39 61 36 13-44 3 34.18 67.25L924 327l-26 7 102 82.88V275.16L817 164zM842.01 550L549.57 382.78l-78.17-33.35H500L462 330l-17.13-39.56L456 280h-17.95l3.99-41.22L842.01 550zM324 332l-12 32 19 7-5 7 44 35 52 12-64-79-34-14zM339 511.62l-78.3-39.12L197 463l-38-18-7-13 14 1-17-11 5-5-15-7 5-4-4-11 199 116.62z"/><path class="cls-5" d="M344.25 282H150.86l29.39-6-7-14 25-2 9-24 37-8 17 19 18-10 25 4 10 24 17-2v10l37.89 9h-24.89zM109.04 446.54H5.55L31 441l-1-6 14-11 11 7 17-13 16-2 7 11 15 2 5.42 6.92-6.38 10.62zM705.81 230H574l27.77-8.31-3.19-12.82 15.96 2.13 4.26-18.16 14.89-9.62 27.66 8.55 4.98 14.84 26.94-9.5 19.82 9.5 8.97 13.72-16.25 9.67zM51.62 110H190l-30.12-3.08 6.66-4.61-6.66-13.85-18.32-1.54L121.57 70l-16.65 9.23-5 9.23-21.65-4.61-18.32 23.07L30 110h21.62zM392.56 160H505l-24.47-2.38-3.15-9.23-6.59 1.93-5.15-8.19-12.45-11.16-17.59 11.61L422.41 130l-19.79 7.74-8.8 15.49L375 160h17.56zM957.9 127.5H825l20.2-4.33 3.77-9.67 8.6-1.87 8.73-12.13 21.33-7 18.67 12.6 12-7 17.33 5.6 1.65 11.53 15.69 1.07v5.6l22.03 5.6h-17.1z"/><path d="M505.92 252.2h20v5a5 5 0 01-5 5h-10a5 5 0 01-5-5v-5z" transform="rotate(5 515.958 257.202)" opacity=".5"/><path d="M544.91 212.64c-1.11 12.69-14.37 35.8-28.12 34.6S494 221 495.1 208.28s13.16-22 26.92-20.81 23.98 12.47 22.89 25.17z" fill="#a1b333"/><g opacity=".5"><path d="M509.08 205a9.84 9.84 0 011.76-3.38 2 2 0 010-2.85l.11-.11a2 2 0 012.86.23l.12.16a10.12 10.12 0 011.76-.75 10.73 10.73 0 011.87-.4 1.94 1.94 0 01.69-1.54 2 2 0 013.29 1.36 1.83 1.83 0 010 .47c0 .06 0 .08.07.11a10.14 10.14 0 011.75.7 8.82 8.82 0 011.49 1l.07.05a2 2 0 011.72-.6 1.93 1.93 0 011.32.77 2 2 0 01-.36 2.79l-.12.09c.2.45.4.87.61 1.31l-1.8.87a7.91 7.91 0 00-5.73-5.23 7.62 7.62 0 00-6.11 1 7.73 7.73 0 00-3.64 5.67 7.87 7.87 0 002 6.45h-.6a8.48 8.48 0 01-1.88-.16.18.18 0 01-.1-.07 9.14 9.14 0 01-1.07-2.51c-.13-.47-.2-1-.31-1.45v-.08a2 2 0 01-1.69-.86 1.9 1.9 0 01-.37-1.46A2 2 0 01509 205z"/><path d="M520.65 208a2 2 0 11-1.83-2.16 2 2 0 011.83 2.16z"/><path d="M522.16 224.2l.18-2-17.92-1.56.17-2 2 .17a.41.41 0 000-.11l.23-2.62a.12.12 0 00-.08-.15A13.15 13.15 0 01505 215a.14.14 0 01-.08-.16l.19-2.08v-.11l.07.05a12.61 12.61 0 004.12 2 12.81 12.81 0 002.87.51 10.72 10.72 0 004.94-.86 17.21 17.21 0 002.91-1.61c1.17-.76 2.27-1.64 3.38-2.49.82-.62 1.64-1.25 2.48-1.84a19 19 0 014.07-2.29 12.55 12.55 0 013.86-.9 12.43 12.43 0 011.93 0h.13l-.17 2h-2l-.81 9.21a.13.13 0 00.09.15l1.18.6a1 1 0 01.58 1l-.61 6.93zm10.13-1.13l.37-4.21a.18.18 0 00-.06-.09c-1.23-.62-2.47-1.25-3.71-1.86a.17.17 0 00-.12 0l-4 1.38a.13.13 0 00-.11.13l-.33 3.86v.12l1.88.16a.22.22 0 00.19-.06l2-1.68.11-.08.06.1c.56.67 1.12 1.33 1.67 2a.24.24 0 00.17.09l1.88.16zm-.67-15.31l-.44.15a16.59 16.59 0 00-3.65 1.88.21.21 0 00-.1.17l-.47 5.31v.11h.09c.52-.18 1-.35 1.54-.54a1 1 0 01.81.05l1.29.64.26.14zM520.52 220l2 .17v-.12l.23-2.61a1 1 0 01.66-.84c.44-.17.92-.35 1.37-.49a.13.13 0 00.1-.13l.39-4.48v-.1c-.32.25-.64.48-.95.71-1.06.82-2.12 1.63-3.22 2.36a.22.22 0 00-.1.17l-.46 5.25zm-1.64-4.22a13.51 13.51 0 01-4.12 1.32l-.21 2.38 4 .35zm-10.3 3.22l4 .34.18-2.06a12.6 12.6 0 01-4-.58z"/></g><path class="cls-9" d="M501 226.94a1.89 1.89 0 01-.66-.74 2 2 0 01.17-2 1.87 1.87 0 01.78-.61 2.28 2.28 0 011.89.08 1.78 1.78 0 01.61.55l-.59.45a1.16 1.16 0 00-.89-.51 1.2 1.2 0 00-.62.1 1 1 0 00-.44.36 1.35 1.35 0 00-.11 1.22 1.3 1.3 0 00.37.44 1.38 1.38 0 00.6.2 1.2 1.2 0 001-.36l.5.56a1.83 1.83 0 01-.69.43 2.21 2.21 0 01-.88.09 2.05 2.05 0 01-1.04-.26z"/><path d="M504.37 223.71l.85.08-.32 3.67-.85-.07z" fill="#ff6933"/><path class="cls-9" d="M506.79 224.63l-1.17-.11.06-.69 3.2.28-.06.69-1.17-.1-.27 3-.85-.07zM511.36 228l-.61-1.08-.79-.07-.09 1-.85-.08.32-3.67 1.59.14a2.19 2.19 0 01.83.23 1.29 1.29 0 01-.19 2.34l.7 1.25zm0-2.85a.86.86 0 00-.57-.21l-.69-.06-.11 1.3.69.06a.87.87 0 00.59-.12.67.67 0 00.11-.93zM513.31 227.83a1.74 1.74 0 01-.32-1.29l.18-2.06.85.08-.18 2c-.06.66.19 1 .72 1a.74.74 0 00.64-.16 1.14 1.14 0 00.28-.73l.17-2 .84.07-.18 2.06a1.74 1.74 0 01-1.94 1.52 1.77 1.77 0 01-1.06-.53zM517.38 228.5a1.75 1.75 0 01-.63-.37l.34-.61a2.18 2.18 0 00.54.33 2 2 0 00.64.16 1 1 0 00.55-.06.33.33 0 00.2-.27.32.32 0 00-.09-.23.82.82 0 00-.25-.16c-.1 0-.24-.09-.42-.16a5.4 5.4 0 01-.67-.25 1.18 1.18 0 01-.43-.37.84.84 0 01-.14-.6 1 1 0 01.22-.57 1.14 1.14 0 01.56-.35 2.09 2.09 0 01.86-.09 3.16 3.16 0 01.68.14 2.23 2.23 0 01.57.3l-.32.62a2.07 2.07 0 00-1-.38 1 1 0 00-.54.07.38.38 0 00-.2.29.3.3 0 00.18.3 2.42 2.42 0 00.58.23c.23.08.45.16.67.26a1.15 1.15 0 01.43.36.84.84 0 01.14.6 1 1 0 01-.21.58 1.27 1.27 0 01-.57.36 2.31 2.31 0 01-.87.08 3.07 3.07 0 01-.82-.21zM524.6 225.65a1.2 1.2 0 01.64 1.23 1.25 1.25 0 01-.26.69 1.19 1.19 0 01-.59.42 2.09 2.09 0 01-.86.08l-.74-.06-.09 1-.85-.07.32-3.68 1.59.14a2.08 2.08 0 01.84.25zm-.45 1.61a.66.66 0 00.09-.93.87.87 0 00-.57-.22L523 226l-.11 1.29.69.06a.88.88 0 00.57-.09zM528 228.69l-1.71-.15-.4.78-.87-.08 1.94-3.53.84.07 1.32 3.82-.87-.08zm-.2-.67l-.46-1.46-.71 1.36zM531.82 229.82l-.62-1.09-.78-.06-.09 1-.85-.08.32-3.67 1.59.14a2.24 2.24 0 01.84.23 1.29 1.29 0 01-.22 2.34l.71 1.25zm0-2.85a.89.89 0 00-.57-.21l-.69-.06-.11 1.3.69.06a.9.9 0 00.6-.12.68.68 0 00.09-.94zM534.8 228.63l-.53.47-.09.93-.84-.08.32-3.67.85.07-.15 1.72 1.76-1.58 1 .08-1.67 1.51 1.44 2.16-1-.08z"/></svg>