<svg data-name="Слой 1" xmlns="http://www.w3.org/2000/svg" viewBox="0 0 100 100"><rect width="100" height="100" rx="10" fill="none"/><path d="M96 40h-6V20a10 10 0 00-10-10H70V4a4 4 0 00-4-4H34a4 4 0 00-4 4v6H20a10 10 0 00-10 10v20H4a4 4 0 00-4 4v6a10 10 0 0010 10v20a10 10 0 0010 10v6a4 4 0 004 4h8a4 4 0 004-4v-6h28v6a4 4 0 004 4h8a4 4 0 004-4v-6a10 10 0 0010-10V60a10 10 0 0010-10v-6a4 4 0 00-4-4zM44 2.5h12a4 4 0 014 4 1 1 0 01-1 1H41a1 1 0 01-1-1 4 4 0 014-4zM20 30a10 10 0 0110-10h40a10 10 0 0110 10v16a4 4 0 01-4 4H24a4 4 0 01-4-4zm-3 45a8 8 0 118 8 8 8 0 01-8-8zm58 8a8 8 0 118-8 8 8 0 01-8 8z" fill="#a1b133"/></svg>