<svg data-name="Слой 1" xmlns="http://www.w3.org/2000/svg" viewBox="0 0 100 100"><rect width="100" height="100" rx="10" fill="none"/><path d="M90 44a4 4 0 00-4-4H76l-4.11-20.53C70.78 13.9 66.78 10 62.19 10H37.81c-4.59 0-8.59 3.9-9.7 9.47L24 40H14a4 4 0 00-4 4 15.94 15.94 0 005.6 12.14A19.92 19.92 0 0010 70v16a4 4 0 004 4h6v6a4 4 0 004 4h8a4 4 0 004-4v-6h28v6a4 4 0 004 4h8a4 4 0 004-4v-6h6a4 4 0 004-4V70a19.92 19.92 0 00-5.6-13.86A15.94 15.94 0 0090 44zm-62 1.22l4.53-22.65c.89-4.45 4.09-7.57 7.76-7.57h19.5c3.67 0 6.87 3.12 7.76 7.57L72 45.22a4 4 0 01-3.13 4.7 4.23 4.23 0 01-.79.08h-36.2a4 4 0 01-4-4 4 4 0 01.12-.78zM17 75a8 8 0 118 8 8 8 0 01-8-8zm58 8a8 8 0 118-8 8 8 0 01-8 8z" fill="#a1b133"/></svg>