<svg data-name="Слой 1" xmlns="http://www.w3.org/2000/svg" viewBox="0 0 100 100"><rect width="100" height="100" rx="10" ry="10" fill="#fff"/><path d="M90 44a4 4 0 00-4-4H76l-4.106-20.532C70.78 13.904 66.78 10 62.192 10H37.808c-4.589 0-8.589 3.904-9.702 9.468L24 40H14a4 4 0 00-4 4 15.953 15.953 0 005.599 12.143A19.918 19.918 0 0010 70v16a4 4 0 004 4h6v6a4 4 0 004 4h8a4 4 0 004-4v-6h28v6a4 4 0 004 4h8a4 4 0 004-4v-6h6a4 4 0 004-4V70a19.918 19.918 0 00-5.599-13.857A15.953 15.953 0 0090 44zm-62.043 1.215l4.528-22.64c.89-4.452 4.09-7.575 7.761-7.575h19.508c3.67 0 6.87 3.123 7.761 7.575l4.528 22.64A4 4 0 0168.121 50H31.879a4 4 0 01-3.922-4.785zM17 75a8 8 0 118 8 8 8 0 01-8-8zm58 8a8 8 0 118-8 8 8 0 01-8 8z" fill="#404040" opacity=".8"/></svg>