<svg id="Слой_1" data-name="Слой 1" xmlns="http://www.w3.org/2000/svg" viewBox="0 0 575 420"><defs><style>.cls-2,.cls-7{fill:#5b534d}.cls-3{fill:#70533e}.cls-4{fill:#a27758}.cls-5{fill:#664b38}.cls-7,.cls-8{isolation:isolate}.cls-8{fill:#404040;opacity:.8}</style></defs><path fill="#c6a284" d="M0 0h575v420H0z"/><path class="cls-2" d="M182.68 102.25l1.88.13 1.14-.32 1.56-1 .82-1.49.26-1.33-1-3.83-2.25-1.6-1.29-.28-1.75.46-.48-1.75-1.57-1.5-2-.74-2.49.68-1.75 1.75-.67 2.09.61 2.34 1 1.61 1.45.88-2.91 5.25-3.62-2.17-4.62-1.28h-4.87a7.54 7.54 0 00-2.24.62l-4.89 1.34a6.8 6.8 0 00-1.56.63l-3.5 2-4.52 3.74-2.65 3.89-1.31 2.28-6.54-3.92.68-2.07.11-1.93-.48-1.75-1.75-2-2-.71-2.28.63-1.56 1-.84 1.49-.27 1.33.48 1.75-1.75.47-1.41 1.65-.82 1.48v2.53l.33 1.24.86.94 1.46.88 1.29.28 1.3.28 2.28-.63 1-.89.68-2.09 8 4.78-.49 2.66V124l.9 3.4a5.52 5.52 0 001.24 2.34l.88 1 1.61 1.47 1.59 1.45 1.46.88-6.7 11.92-2.59-.54-1.3-.28-1.75.45-1.75 2.4-.6 2.65.46 1.75 1.61 1.47 1.44.86 1.87.12 1.14-.32.46 1.75 1.61 1.47 1.89.74 2.42-.65 2-1.75.53-2.66-.61-2.36-.76-1.05-1.45-.86 6.5-12.52 4.61 1.28 2.35 8.75 3-.82-.57-2.15 1.3-.36.47 2.17 3-.81-.56-2.15 1.07-.3.58 2.16 2.8-.76-.56-2.15 1.23-.33.56 2.15 2.75-.75-.58-2.16 1-.28.56 2.16 3.89-1-2.21-8.16 1.76-2.4 10.9 6.55-1.41 1.64v2.52l.48 1.75 1.59 1.46 2.59.56 1.76-.51 1.43-1 .69-2.09.24-1.33-.42-1.64 2.25-.76 1.4-1.64.26-1.33-.74-3.66-1.57-1.35-2-.72-2.27.63-1.56 1.05-.83 1.49-9.53-5.57 1.75-3 .77-4 .21-3.86-1.08-4.13-1.37-2.85-1.91-2.65 2.91-5.25zm-27.47 29.63a5.38 5.38 0 01-6.53-3.86V128a5.44 5.44 0 013.73-6.7 5.35 5.35 0 016.52 3.82v.08a5.47 5.47 0 01-3.72 6.68zm6.27 5.25l1.88-6.83 5 5zm8.57-9.28a5.36 5.36 0 01-6.53-3.86 5.45 5.45 0 013.74-6.71 5.37 5.37 0 016.52 3.86v.05a5.45 5.45 0 01-3.8 6.68zM366.21 227.88l-39.1-20.33.91-1.72 39.09 20.33-.9 1.72z"/><path class="cls-2" d="M332.26 235l-1.57-1.16L360.01 195l1.57 1.16L332.26 235z"/><path class="cls-3" d="M416.41 166H283.5l15.02-32.42 12.34-16.64 16.54 11.14L351.18 94l28.87 31.87 9.65-8.93 19.22 24.32 13.59 2.2L451.5 166h-35.09z"/><path class="cls-4" d="M373.26 136.86l-18.7-9.88 11.91-3.29v-5.5l-15.29-4.41 8.5-2.19-5.12-2.21-6.79-1.1 5.11-6.58-1.7-7.7 22.99 25.39L376.5 130l8.64 9.07-8.5-4.39-3.38 2.18z"/><path class="cls-5" d="M310.86 116.94l2.95 6.75-8.49 7.68h7.8l4.08 2.21-3.39 3.28 8.5 7.71 11.88 2.18 5.09 3.31-8.48-15.38-8.49-5.5v-4.53l-11.45-7.71z"/><path class="cls-4" d="M389.7 116.94l-4.56 7.08 3.41 7.35 5.09 1.1 1.7 2.21 8.5 3.29 5.08 3.29-19.22-24.32zM451.5 166l-22.2-7.15-6.79-7.68 6.79 1.1-11.88-4.41 5.09-2.19v-2.21L451.5 166z"/><path class="cls-2" d="M260.69 236.05a3 3 0 01-1.16-1.11 3.28 3.28 0 010-3.21 2.88 2.88 0 011.16-1.11 3.4 3.4 0 011.66-.4 3.59 3.59 0 011.46.29 3 3 0 011.08.84l-1.06 1a1.78 1.78 0 00-1.39-.7 1.74 1.74 0 00-.86.22 1.46 1.46 0 00-.58.6 2.1 2.1 0 000 1.79 1.46 1.46 0 00.58.6 1.77 1.77 0 002.25-.49l1.06 1a2.85 2.85 0 01-1.08.83 3.43 3.43 0 01-1.46.29 3.51 3.51 0 01-1.66-.44z"/><path d="M265.63 230.34h1.66v6h-1.66z" fill="#ff7847"/><path class="cls-2" d="M269.73 231.68h-1.81v-1.34h5.28v1.34h-1.8v4.64h-1.67zM276.4 234.73h-.91v1.59h-1.67v-6h2.7a3.27 3.27 0 011.38.27 2 2 0 01.91.77 2.31 2.31 0 010 2.31 2 2 0 01-.85.75l1.27 1.88h-1.78zm.79-2.82a1.1 1.1 0 00-.78-.23h-.92v1.75h.92a1.15 1.15 0 00.78-.23.93.93 0 000-1.29zM280.73 235.72a2.77 2.77 0 01-.73-2.06v-3.32h1.67v3.27c0 .95.37 1.43 1.12 1.43s1.11-.48 1.11-1.43v-3.27h1.64v3.32a2.52 2.52 0 01-2.77 2.78 2.76 2.76 0 01-2.04-.72zM287.35 236.26a3.2 3.2 0 01-1.1-.47l.55-1.25a3.4 3.4 0 00.92.43 3.67 3.67 0 001 .16c.64 0 1-.16 1-.49a.4.4 0 00-.27-.38 5.17 5.17 0 00-.88-.26 9.3 9.3 0 01-1.11-.31 1.87 1.87 0 01-.77-.54 1.45 1.45 0 01-.32-1 1.69 1.69 0 01.3-1 1.9 1.9 0 01.88-.7 3.58 3.58 0 011.43-.26 5.55 5.55 0 011.15.13 3.65 3.65 0 011 .39l-.51 1.26a3.41 3.41 0 00-1.64-.46 1.33 1.33 0 00-.72.15.46.46 0 00-.23.39.39.39 0 00.27.36 4.51 4.51 0 00.87.24 7 7 0 011.11.32 1.84 1.84 0 01.77.53 1.4 1.4 0 01.32 1 1.68 1.68 0 01-.29 1 2 2 0 01-.88.69 3.46 3.46 0 01-1.44.26 5.28 5.28 0 01-1.41-.19zM298.64 230.61a2.12 2.12 0 010 3.88 3.31 3.31 0 01-1.39.27h-1v1.56h-1.66v-6h2.69a3.31 3.31 0 011.36.29zm-.72 2.59a.93.93 0 000-1.29 1.09 1.09 0 00-.77-.23h-.93v1.75h.93a1.14 1.14 0 00.77-.23zM304.33 235.16h-2.49l-.47 1.16h-1.7l2.6-6h1.65l2.6 6h-1.73zm-.49-1.25l-.76-1.91-.76 1.91zM309.57 234.73h-.91v1.59H307v-6h2.69a3.35 3.35 0 011.39.27 2 2 0 011.23 1.95 2.1 2.1 0 01-.3 1.13 2 2 0 01-.86.75l1.27 1.88h-1.78zm.79-2.82a1.09 1.09 0 00-.77-.23h-.93v1.75h.93a1.14 1.14 0 00.77-.23.93.93 0 000-1.29zM315.49 234.15l-.62.68v1.49h-1.65v-6h1.65v2.49l2.28-2.49H319l-2.42 2.68 2.53 3.33h-1.93zM278.45 210.42a.22.22 0 00.15-.37 12 12 0 01-3.43-7.43c0-.33-.05-.68-.05-1s0-.69.05-1a11.93 11.93 0 012.64-6.54 12.34 12.34 0 011.77-1.77 11.93 11.93 0 016.54-2.64c.33 0 .67-.05 1-.05h1a12 12 0 016.53 2.65 12.34 12.34 0 011.77 1.77 12.14 12.14 0 011.89 3.28.23.23 0 00.34.1c.68-.51 1.44-1 2.25-1.53a.22.22 0 00.09-.27 15.71 15.71 0 00-1.23-2.29 3.14 3.14 0 00.73-3.25 3.09 3.09 0 00-3-2.06 3.13 3.13 0 00-2.17.9 15.07 15.07 0 00-5.16-2.13v-.13a3.1 3.1 0 00-3.12-3.09 3.12 3.12 0 00-3.1 3.13v.08a15.09 15.09 0 00-5.16 2.14 3.1 3.1 0 00-2.2-.9 3.09 3.09 0 00-2.93 2.08 3.14 3.14 0 00.74 3.23 15.06 15.06 0 00-2.14 5.17h-.12a3.07 3.07 0 00-2.94 2.13 3.13 3.13 0 003 4.11h.08a14.86 14.86 0 002.34 5.47.22.22 0 00.16.09 21.22 21.22 0 003.68.12z"/><path class="cls-2" d="M287.16 204.7a3.11 3.11 0 000-6.22 3.11 3.11 0 100 6.22z"/><path class="cls-2" d="M295.75 203.3c-2.58 2.63-9.2 8.89-14.88 10.18-4.37 1-10.36-.31-14.78-2.23a.22.22 0 00-.31.2v2.63a.21.21 0 00.13.2 35 35 0 005.43 1.78v3.27a.23.23 0 01-.23.23h-4a.22.22 0 00-.22.22v2.66a.22.22 0 00.22.23h26.23a.22.22 0 01.22.22v2.67a.22.22 0 00.22.22h17.33a.22.22 0 00.23-.22v-9.8a2.24 2.24 0 00-1.29-2l-1.7-.78a.23.23 0 01-.13-.2v-13.34l-.72.21a14.66 14.66 0 014.72-.76.22.22 0 00.23-.22V196a.24.24 0 00-.22-.23c-7.02-.17-13.83 4.84-16.48 7.53zm3.56.93a26.72 26.72 0 015.8-3.65v10.53a.22.22 0 01-.31.2l-1.42-.66a2.26 2.26 0 00-1.87 0l-1.41.66a.22.22 0 01-.32-.2v-7.27zm-1 .9l-.36.35-.3.31.3-.31zm.93-.83c-.3.25-.58.5-.84.74.24-.24.52-.49.82-.74zm-19.66 15.26h-4.89a.22.22 0 01-.22-.23v-2.68a24.93 24.93 0 003.31.24 19 19 0 002-.1v2.54a.22.22 0 01-.22.23zm-7.49-3.34zm8.67.44zm.37-.07a3.43 3.43 0 00.44-.09 3.43 3.43 0 01-.46.09zm1.14-.27zm5.75 3.24h-4.89a.22.22 0 01-.22-.23v-3.2a24.72 24.72 0 005.33-2.6v5.8a.22.22 0 01-.24.23zm2.64-7.67l-.13.09zm-.82.58zm3.52 7.09h-1.78a.22.22 0 01-.22-.23v-8a61.4 61.4 0 005.33-4.63v6a.23.23 0 01-.13.2l-1.69.78a2.22 2.22 0 00-1.29 2v3.57a.22.22 0 01-.24.31zm4-13.51h-.05zM308 222.67h-2.34a.21.21 0 01-.17-.08l-2.71-3.1a.45.45 0 00-.67 0l-2.71 3.1a.21.21 0 01-.17.08h-2.34a.22.22 0 01-.22-.23v-5.26a1.33 1.33 0 01.77-1.21l4.45-2.06a1.37 1.37 0 011.12 0l4.44 2.06a1.33 1.33 0 01.77 1.21v5.26a.22.22 0 01-.22.23zm-2-22.45c.46-.19.93-.36 1.4-.52-.52.16-.99.3-1.4.52zm-.84.36l.68-.3z"/><path class="cls-7" d="M362.7 210.14a2.44 2.44 0 111 3.53 2.51 2.51 0 01-1.11-3.37zm3.61-5.33l8.56-19.63 3.56 1.67-9.58 19.15zM369.68 211.6a2.44 2.44 0 11.79 3.59 2.52 2.52 0 01-.89-3.44zm4-5.09l9.81-19 3.45 1.9-10.81 18.48zM375.76 214.67a2.44 2.44 0 11.29 3.66 2.5 2.5 0 01-.41-3.52zm4.62-4.49l12.35-17.49 3.16 2.36-13.27 16.81z"/><path class="cls-8" d="M25.58 400.84h-.34a17.59 17.59 0 01-9.24-3.07l.8-1.47a15.82 15.82 0 008.51 2.83h.31a13.32 13.32 0 008-2.66l.85 1.43a14.72 14.72 0 01-8.89 2.94zM2.82 382.91c-3.58-5.68-6.89-12.12-9.65-17.66l1.37-.82c2.74 5.51 6 11.89 9.56 17.51zm43.71-.86l-1.32-.89c1.23-2.19 2.48-4.52 3.78-6.94 1.85-3.43 3.76-7 5.87-10.63l1.32.91c-2.1 3.64-4 7.17-5.84 10.59-1.34 2.43-2.57 4.76-3.81 6.96zm201-13.37a147.78 147.78 0 00-12.93-14.62l1.05-1.26a150 150 0 0113.07 14.78zM67.07 348l-1.18-1.11a94.43 94.43 0 0113.58-14.27l1 1.35A93.19 93.19 0 0067.07 348zm-82.7-.88a512.38 512.38 0 01-8.32-18.41l1.42-.72c2.47 5.8 5.18 11.8 8.28 18.34zM220 341.46a138 138 0 00-16-10.35l.7-1.53a139.39 139.39 0 0116.17 10.47zm-123.8-18l-.66-1.55a86 86 0 0117.8-6.69l.36 1.66a84.25 84.25 0 00-17.49 6.6zm90.7-.3c-2.5-.95-5.08-1.84-7.64-2.63-2.16-.65-5.77-1.75-10.28-2.83l.33-1.67c4.56 1.09 8.19 2.19 10.37 2.85 2.6.81 5.2 1.7 7.73 2.67zm-36.29-8.63a116.07 116.07 0 00-18.56-.45l-.08-1.71a119 119 0 0118.79.46zm-182-4.68c-2.43-6.71-4.53-13.24-6.24-19.4l1.49-.5c1.7 6.12 3.79 12.6 6.2 19.27zm-10.7-39.4a124.7 124.7 0 01-1.71-19.75v-.79h1.56v.77a122.14 122.14 0 001.69 19.45zm2.51-40.45l-1.49-.51a53.65 53.65 0 016.49-14.43 38.86 38.86 0 012.7-3.66l1.15 1.16a37.05 37.05 0 00-2.58 3.49A51.75 51.75 0 00-39.58 230zM77 211.69a140.61 140.61 0 01-18.68-2.14l.24-1.68A137.54 137.54 0 0077 210zm18.77-2l-.4-1.65a32.58 32.58 0 0015.63-9.76l1.12 1.19a34 34 0 01-16.38 10.25zm-55.88-3.8c-6-1.27-12.28-2.58-18.37-3.62l.23-1.68c6.12 1 12.38 2.35 18.44 3.62zm-55.15-3.55l-.43-1.64a53.82 53.82 0 0116.25-2.19h2.47v1.71H.6a52.3 52.3 0 00-15.89 2.15zm136-21.28l-1.54-.29a47.55 47.55 0 00.54-7.35 76.57 76.57 0 00-1.17-12.73l1.53-.31a78.27 78.27 0 011.2 13 50.17 50.17 0 01-.56 7.71zm478.64-16.41a371.65 371.65 0 00-8.22-18.33l1.38-.8c2.81 5.84 5.59 12 8.26 18.42zM113.9 141c-.79-2.78-1.61-5.56-2.42-8.3-1.14-3.9-2.23-7.58-3.22-11.26l1.49-.48c1 3.65 2.07 7.32 3.22 11.21.81 2.76 1.63 5.54 2.42 8.33zm468-12.35c-3.39-6-6.92-11.64-10.5-16.85l1.25-1c3.6 5.26 7.16 11 10.57 17zm-477.57-27.41c-.07-1.09-.11-2.14-.11-3.14 0-7.18 1.89-12.54 5.77-16.39L111 83c-3.53 3.5-5.25 8.45-5.25 15.12 0 1 0 2 .1 3zm455.12-5.06a136.1 136.1 0 00-13.64-13.8l1-1.34a137.31 137.31 0 0113.8 14zm-170.82-.13a24.49 24.49 0 01-13.36-6.19A23.77 23.77 0 01372 86.3l1.21-1.08a21.07 21.07 0 003 3.31 22.94 22.94 0 0012.56 5.82zm18.75-2.33l-.38-1.65a137.22 137.22 0 0017.41-7.14l.59 1.57a140.32 140.32 0 01-17.62 7.22zM442 78l-.64-1.56c5.11-2.55 11.15-5.52 17.21-8.13l.57 1.58c-6 2.65-12.02 5.6-17.14 8.11zm-275.09-.56h-1.79v-1.7h1.77a81.67 81.67 0 0016.68-1.5l.29 1.68a83.07 83.07 0 01-16.92 1.56zm-20.5-1c-3.69-.23-7.62-.44-11.42-.44h.01c-2.63 0-4.95.1-7.1.31l-.14-1.7c2.19-.21 4.56-.32 7.24-.32 3.91 0 7.83.22 11.56.45zm383.94-5.35a87.09 87.09 0 00-17.08-7.78l.44-1.63a88.63 88.63 0 0117.38 7.9zm-328.8-2.44l-.84-1.45A43.85 43.85 0 00213.48 53l1.31.92a45.56 45.56 0 01-13.24 14.73zm164.12-1.82c-.27-2.81-.4-5.84-.4-9.29 0-3.25.12-6.84.36-11.32l1.56.11c-.25 4.43-.36 8-.36 11.21 0 3.39.13 6.37.39 9.11zm111.15-3.28l-.38-1.65a75.31 75.31 0 0118.63-3v1.71a74.41 74.41 0 00-18.25 2.94zm-253.63-28l-1.43-.67.94-2.45c2.06-5.34 4.18-10.87 6.77-16.28l1.38.79c-2.56 5.35-4.67 10.84-6.71 16.16zm145.24-9.66l-1.56-.08c.14-3.05.2-5.74.2-8.22a92 92 0 00-.69-12.07l1.55-.24a95.66 95.66 0 01.7 12.31c0 2.48-.06 5.19-.2 8.27zM241.25.24L240.1-.91a64.66 64.66 0 0112.17-11.36c.79-.57 1.6-1.13 2.41-1.68l.82 1.45c-.8.54-1.6 1.1-2.38 1.66A63.36 63.36 0 00241.25.24zm118.37-13a24.51 24.51 0 00-3-3.23 51.55 51.55 0 00-12.07-7.89l.62-1.57a53.47 53.47 0 0112.43 8.13 27.08 27.08 0 013.24 3.44zm-87.51-8.72l-.57-1.59a110.94 110.94 0 0118-6l.34 1.66a110.07 110.07 0 00-17.77 5.9zm54.63-7.77a86.27 86.27 0 00-18.5-.86l-.07-1.71A88.29 88.29 0 01327-31zM484.65 452a174.56 174.56 0 01-18.65-2.21l.25-1.69a173.94 173.94 0 0018.5 2.2zm18.78-.2l-.13-1.7a93.22 93.22 0 0018.25-3.44l.41 1.65a94.6 94.6 0 01-18.53 3.49zm-55.83-6c-5.48-1.39-11.3-3-17.28-4.9l-.85-.27.43-1.64.85.26c6 1.86 11.74 3.51 17.2 4.89zm91.87-5.1l-.74-1.5a79.45 79.45 0 0015.15-11.57l1 1.29a80.87 80.87 0 01-15.41 11.82zM412 433.18c-5.35-2.88-10.4-6.09-16.34-10l.8-1.47c5.91 3.92 10.93 7.12 16.23 10zm155.6-19.45l-1.25-1a129.48 129.48 0 009.8-17.25l1.38.79a130.72 130.72 0 01-9.93 17.46zm-188-1.08c-5.68-3.54-11.08-6.62-16.51-9.41l.66-1.55c5.46 2.81 10.9 5.91 16.62 9.48zm-33.69-17.26c-5.58-2.26-11.53-4.41-17.68-6.38l.44-1.64c6.18 2 12.17 4.14 17.78 6.42zm-35.72-11.57c-6-1.56-12.18-3-18.26-4.17l.28-1.68c6.1 1.21 12.27 2.63 18.34 4.19zm275-6.36l-1.44-.63c2.1-5.76 4.45-12.2 6.88-19.07l1.46.62c-2.47 6.88-4.82 13.32-6.93 19.08zm-311.64-1c-6.14-.87-12.38-1.59-18.55-2.12l.12-1.7c6.2.53 12.47 1.25 18.63 2.13zm325.18-37.3l-1.46-.59c2.28-6.81 4.38-13.3 6.24-19.31l1.48.55c-1.89 6.05-3.99 12.56-6.29 19.38zm-151.96-38.55h-1.9v-1.71a67.7 67.7 0 0010.22-.48c2.7-.33 5.47-.77 8.22-1.29l.27 1.68c-2.79.53-5.59 1-8.32 1.3a70 70 0 01-8.49.5zm163.88-.35l-1.5-.48c1.93-7.14 3.53-13.79 4.77-19.77l1.52.38c-1.25 6.01-2.86 12.7-4.79 19.87zm-184.39-2.71a90.76 90.76 0 01-17.55-7.45l.7-1.53a89 89 0 0017.26 7.33zm55.6-3.54l-.45-1.64a186.6 186.6 0 0017.53-6.84l.59 1.58a189.68 189.68 0 01-17.67 6.89zm-89.3-14.46c-4.65-3.51-9.41-7.44-15-12.39l1-1.33c5.52 4.92 10.24 8.83 14.87 12.31zm124-.91l-.69-1.53c5.15-2.79 10.55-5.91 16.52-9.54l.75 1.5c-5.95 3.64-11.37 6.77-16.54 9.57zm101.92-18.58l-1.55-.15c.19-2.34.28-4.55.28-6.57 0-5.57-.71-10-2.11-13.14l1.4-.75c1.5 3.38 2.27 8.06 2.27 13.89.04 2.07-.06 4.33-.25 6.72zm-69.08-1.17l-.79-1.48 2.42-1.54c4.83-3.09 9.38-6 13.8-8.71l.76 1.49c-4.4 2.71-9 5.61-13.78 8.69zM363.25 254c-3-2.75-6.46-5.93-9.77-8.72l.95-1.36c3.33 2.82 6.84 6 9.82 8.77zm218.94-14.7l-.64-1.56c7.13-3.5 13-5.47 18-6l.16 1.7c-4.81.5-10.55 2.43-17.52 5.85z"/><path class="cls-5" d="M121.5 330l30.44-36.92 19.22 6.16 25.62-15.4 8.02-20L219.22 250l15.22 11 12.82 29 23.22 24.24L298.1 330H121.5z"/><path class="cls-3" d="M240.9 275.62l19.96-14.84 12.02 23.72 16.46 4.1 6.78 15.24 12.1 3.08 10.32-52.3 24.02 27.68 6.42 13.86L401.5 330H298.1l-27.62-15.76L247.26 290l-6.36-14.38z"/><path style="isolation:isolate" opacity=".5" fill="#a27758" d="M270.48 314.24l-35.24-31.94-17.62-9.22 3.2-7.7-4.8-3.08 4.8-9.22-1.6-3.08 15.22 11 12.82 29 23.22 24.24z"/><path class="cls-4" d="M151.94 293.08l-3.2 7.68 3.2 7.24 9.6 3.54 11.22 7.7 12.82 3.06-11.22-13.84-11.2-9.22-1.36-3-9.86-3.16zM260.86 260.78l-4.8 13.84 8.02 10.76 6.4 4.62-4.6-7.88 1.4-5.96-.56-3.84-5.86-11.54zM289.34 288.6l-1 3.7-5.04 2.32 3.2 3.08 4.8 3.06 4.18 6.16-.98-4.62-4.8-7.68-.36-6.02zM401.5 330l-30.1-18.46-25.64-9.24-8.1-10-12.72-6.92 9.62-4.62-11.22-9.22-3.2-12.32-1.6-4.6 24.02 27.68 6.42 13.86L401.5 330z"/></svg>