<svg id="Слой_1" data-name="Слой 1" xmlns="http://www.w3.org/2000/svg" viewBox="0 0 360 200"><defs><style>.cls-2,.cls-3,.cls-8,.cls-9{opacity:.8}.cls-3,.cls-9{fill:none;stroke:#404040;stroke-miterlimit:10}.cls-4{fill:#664b38}.cls-5{fill:#70533e}.cls-7{fill:#a27758}.cls-8{fill:#404040}.cls-9{stroke-dasharray:12}</style></defs><path fill="#c6a284" d="M0 0h360v200H0z"/><g class="cls-2"><path class="cls-3" d="M198.5 118.89l20 10.47M215.5 113.17l-15 20"/></g><path class="cls-4" d="M84 160l15.22-18.46 9.61 3.08 12.81-7.7 4.01-10 7.21-6.92 7.61 5.5 6.41 14.5 11.61 12.12L172.3 160H84z"/><path class="cls-5" d="M143.7 132.81l9.98-7.42 6.01 11.86 8.23 2.05 3.39 7.62 6.05 1.54 5.16-26.15 12.01 13.84 3.21 6.93L224 160h-51.7l-13.81-7.88L146.88 140l-3.18-7.19z"/><path opacity=".5" fill="#a27758" d="M158.49 152.12l-17.62-15.97-8.81-4.61 1.6-3.85-2.4-1.54 2.4-4.61-.8-1.54 7.61 5.5 6.41 14.5 11.61 12.12z"/><path class="cls-7" d="M99.22 141.54l-1.6 3.84 1.6 3.62 4.8 1.77 5.61 3.85 6.41 1.53-5.61-6.92-5.6-4.61-.68-1.5-4.93-1.58zM153.68 125.39l-2.4 6.92 4.01 5.38 3.2 2.31-2.3-3.94.7-2.98-.28-1.92-2.93-5.77zM167.92 139.3l-.5 1.85-2.52 1.16 1.6 1.54 2.4 1.53 2.09 3.08-.49-2.31-2.4-3.84-.18-3.01zM224 160l-15.05-9.23-12.82-4.62-4.05-5-6.36-3.46 4.81-2.31-5.61-4.61-1.6-6.16-.8-2.3 12.01 13.84 3.21 6.93L224 160z"/><path class="cls-5" d="M230.38 85H175l6.26-13.51 5.14-6.93 6.89 4.64L203.2 55l12.03 13.28 4.02-3.72 8.01 10.13 5.66.92L245 85h-14.62z"/><path class="cls-7" d="M212.4 72.86l-7.79-4.12 4.96-1.37v-2.29l-6.37-1.84 3.54-.91-2.13-.92-2.83-.46 2.13-2.74-.71-3.21 9.58 10.58.97 4.42 3.6 3.78-3.54-1.83-1.41.91z"/><path class="cls-4" d="M186.4 64.56l1.23 2.81-3.54 3.2h3.25l1.7.92-1.41 1.37 3.54 3.21 4.95.91 2.12 1.38-3.53-6.41-3.54-2.29v-1.89l-4.77-3.21z"/><path class="cls-7" d="M219.25 64.56l-1.9 2.95 1.42 3.06 2.12.46.71.92 3.54 1.37 2.12 1.37-8.01-10.13zM245 85l-9.25-2.98-2.83-3.2 2.83.46-4.95-1.84 2.12-.91v-.92L245 85z"/><path class="cls-8" d="M117.68 50.74l1.07.07.65-.18.89-.6.47-.85.15-.76-.58-2.19-1.28-.91-.74-.16-1 .26-.27-1-.91-.83-1.13-.42-1.42.39-1 1-.38 1.19.35 1.34.59.92.83.5-1.66 3-2.07-1.24-2.64-.73h-2.78a4.29 4.29 0 00-1.28.35l-2.81.77a3.61 3.61 0 00-.89.36l-2 1.15-2.58 2.14-1.51 2.22-.75 1.3-3.73-2.24.39-1.18.06-1.1-.27-1-1-1.17-1.15-.41-1.3.36-.89.6-.48.85-.15.76.27 1-1 .27-.8.94-.47.85v1.44l.19.71.49.54.83.5.74.16.74.16 1.3-.36.56-.51.39-1.19 4.56 2.73-.28 1.52v1.1l.51 1.94a3.22 3.22 0 00.71 1.34l.5.58.92.84.91.83.83.5L92.56 76l-1.48-.31-.74-.16-1 .26-1 1.37-.34 1.51.26 1 .92.84.82.49 1.07.07.65-.18.26 1 .92.84 1.08.42 1.38-.37 1.12-1 .3-1.52-.35-1.35-.43-.6-.83-.49 3.71-7.15 2.63.73 1.34 5 1.7-.47-.32-1.23.74-.2.32 1.23 1.69-.46-.32-1.23.61-.17.33 1.23 1.6-.43-.32-1.23.7-.19.32 1.23 1.57-.43-.33-1.23.58-.16.32 1.23 2.22-.6-1.26-4.66 1-1.37 6.22 3.74-.8.94v1.44l.27 1 .91.83 1.48.32 1-.29.82-.58.39-1.19.14-.76-.24-.94 1.28-.43.8-.94.15-.76-.42-2.09-.9-.77-1.16-.41-1.3.36-.89.6-.47.85-5.44-3.18 1-1.71.44-2.28.12-2.2-.62-2.36-.78-1.63-1.09-1.51 1.66-3zM102 67.66a3.06 3.06 0 01-3.73-2.23 3.11 3.11 0 012.13-3.83 3.05 3.05 0 013.73 2.23 3.12 3.12 0 01-2.13 3.83zm3.58 3l1.07-3.9 2.84 2.84zm4.89-5.3a3.06 3.06 0 01-3.73-2.23 3.11 3.11 0 012.13-3.83 3.06 3.06 0 013.73 2.23 3.12 3.12 0 01-2.17 3.82z"/><path class="cls-9" d="M368 86.67c-19.38-42.35-40.93-55.65-57-60-31.95-8.63-67.73 31.71-87 16-15.08-12.28 4.1-49-12-62-16.49-13.29-47.32-9.92-67 3-22.44 14.74-16 40.44-38 49-17.55 6.83-40.57-2.66-52 5-16.18 10.86 14.7 46.86 2 66-18.82 28.38-76.71-14.06-96 13-16.58 23.26 6.48 66.26 16 84 6.52 12.17 13 23.83 22 24 14.22.28 15.51-28.23 41-43 23.39-13.55 50.74-6 58-4a89.75 89.75 0 0147 32"/><path class="cls-9" d="M146.5 209.17a236.29 236.29 0 0145.06 8c37.75 10.57 45.35 24.68 67.6 31 43.56 12.4 79.69 10.69 97.84-34.5 10.32-25.69 31.87-79.54 18-86-18.16-8.44-54.52 32.93-100 38-28.83 3.22-49.4-20-65-32"/><g class="cls-2"><path class="cls-8" d="M131.55 58.21a1.45 1.45 0 011.7-1.28 1.49 1.49 0 011 1.92 1.45 1.45 0 01-1.7 1.29 1.52 1.52 0 01-1-1.93zm1.37-3.56l2.38-12.48 2.2.52-3 12.33z"/></g><g class="cls-2"><g class="cls-2"><path class="cls-8" d="M221 126.54a1.44 1.44 0 111.43 1.63 1.48 1.48 0 01-1.43-1.63zm.6-3.75l-.34-12.62h2.32l-.33 12.62z"/></g><g class="cls-2"><path class="cls-8" d="M225.06 126.41a1.5 1.5 0 011.58-1.48 1.44 1.44 0 011.24 1.75 1.49 1.49 0 01-1.58 1.49 1.47 1.47 0 01-1.24-1.76zm1-3.67l1-12.57 2.3.22-1.65 12.5z"/></g><g class="cls-2"><path class="cls-8" d="M229.86 126.24a1.5 1.5 0 011.73-1.31 1.43 1.43 0 011 1.9 1.41 1.41 0 11-2.72-.59zm1.42-3.57l2.51-12.5 2.21.48-3.15 12.35z"/></g></g></svg>