<svg id="Слой_1" data-name="Слой 1" xmlns="http://www.w3.org/2000/svg" viewBox="0 0 400 200"><defs><style>.cls-2{fill:#47a4cd}.cls-3{fill:#cff1f2}.cls-4{fill:#fff}</style></defs><path fill="#3d71aa" d="M0 0h400v200H0z"/><path class="cls-2" d="M136.18 153.56L152 133l11 14 25-41 63 94h-53l-35-19-26.82-27.44z"/><path class="cls-3" d="M251 200l-38-47-24-17 8-4-5-4-5-1 4-5-4-7 1-5v-4l63 94zM163 147l-11-14-2 6 4 4 1 4 8 6v-6z"/><path class="cls-4" d="M115.26 155H87l6.95-1.81-.27-1.97 3.82-3.6 3 2.29 4.64-4.25 4.37-.66 1.91 3.6 4.1.66 1.48 2.26-1.74 3.48z"/><path fill="#459cba" d="M85 200l27-39 8-24 43 44 35 19H85z"/><path class="cls-3" d="M163 181l-17-14-14-4-5-10-6-4 4-1-5-4 1-3-1-4 43 44z"/><path class="cls-4" d="M221.37 119H200l4.5-1.42-.52-2.19 2.59.36.69-3.11 2.42-1.64 4.48 1.46.81 2.54 4.36-1.62 3.22 1.62 1.45 2.35-2.63 1.65z"/><path class="cls-2" d="M207.87 135.65L232 100l14 13 6 14 19 18 39 55h-59l-43.13-64.35z"/><path class="cls-3" d="M294.53 178.18L252 147l2-13-20-6 2-14 4-1-7-5-1-8 14.03 13.08L252 127l19 18 23.53 33.18z"/><path class="cls-4" d="M175.44 98H140l5.39-1.33-1.29-3.11 4.58-.45 1.65-5.33 6.78-1.78 3.12 4.22 3.3-2.22 4.58.89 1.83 5.33 3.12-.44V96l6.94 2h-4.56zM278.64 65H237l6.33-1.36 1.18-3.04 2.7-.59 2.73-3.81 6.68-2.2 5.85 3.96 3.76-2.2 5.43 1.76.52 3.62 4.92.34v1.76L284 65h-5.36zM96.49 72H138l-9.04-.92 2-1.39-2-4.15-5.49-.46-6-5.08-4.99 2.77-1.5 2.77-6.5-1.38-5.5 6.92L90 72h6.49zM278 136h32l-10-1.11 1-2.22-4-5.56-5-1.11-4 3.33-2-2.22-3-1.11-3 1.11-4 3.33v2.23l-3 1.11-3 2.22h8zM165 46h45l-11-1-1-3-3 1-2-5-9-4-7 2-1 5-3-2-1 3-13 4h6z"/></svg>