<?xml version="1.0" encoding="utf-8"?><svg viewBox="0 0 40 40" xmlns="http://www.w3.org/2000/svg" xmlns:xlink="http://www.w3.org/1999/xlink"><style>:root>svg{display:none}:root>svg:target{display:block}</style><svg viewBox="0 0 24 24" id="arrow-back" xmlns="http://www.w3.org/2000/svg"><path fill-rule="evenodd" clip-rule="evenodd" d="M8.957 3.293a1 1 0 00-1.414 0l-5.25 5.25a1 1 0 000 1.414l5.25 5.25a1 1 0 001.414-1.414L5.414 10.25H15.75a4.25 4.25 0 010 8.5h-3a1 1 0 100 2h3a6.25 6.25 0 100-12.5H5.414l3.543-3.543a1 1 0 000-1.414z"/></svg><svg viewBox="0 0 24 24" id="arrow-up" xmlns="http://www.w3.org/2000/svg"><path fill-rule="evenodd" clip-rule="evenodd" d="M6.793 9.207a1 1 0 010-1.414l4.5-4.5a1 1 0 011.414 0l4.5 4.5a1 1 0 01-1.414 1.414L13 6.414V20a1 1 0 11-2 0V6.414L8.207 9.207a1 1 0 01-1.414 0z"/></svg><svg viewBox="0 0 24 24" id="arrow-up-small" xmlns="http://www.w3.org/2000/svg"><path fill-rule="evenodd" clip-rule="evenodd" d="M4.293 15.707a1 1 0 010-1.414l7-7a1 1 0 011.414 0l7 7a1 1 0 01-1.414 1.414L12 9.414l-6.293 6.293a1 1 0 01-1.414 0z"/></svg><svg viewBox="0 0 24 24" id="icon-burger-menu" xmlns="http://www.w3.org/2000/svg"><path fill-rule="evenodd" clip-rule="evenodd" d="M1 12a1 1 0 011-1h20a1 1 0 110 2H2a1 1 0 01-1-1zM1 18a1 1 0 011-1h20a1 1 0 110 2H2a1 1 0 01-1-1zM1 6a1 1 0 011-1h20a1 1 0 110 2H2a1 1 0 01-1-1z"/></svg><svg fill="none" viewBox="0 0 40 40" id="icon-chat" xmlns="http://www.w3.org/2000/svg"><path fill-rule="evenodd" clip-rule="evenodd" d="M36.539 17.611a12.92 12.92 0 01-1.634 4.645c.063.356.095.716.095 1.077 0 1.255-.364 2.456-1.037 3.547-.337.544-.423 1.182-.456 1.604-.038.483-.026 1.012.009 1.52.039.57.109 1.168.189 1.732-.65-.19-1.356-.38-2.029-.532a14.5 14.5 0 00-1.65-.288c-.453-.046-1.107-.082-1.692.107a13.56 13.56 0 01-4.168.643c-1.763 0-3.382-.313-4.802-.856-.341.015-.685.023-1.031.023a22.06 22.06 0 01-5.748-.752C15.213 33.121 19.546 35 24.166 35c1.805 0 3.537-.277 5.134-.786h.015c.041-.002.155-.004.368.018.334.035.764.112 1.26.224.987.222 2.096.551 2.961.825 1.834.583 3.61-1.018 3.283-2.878-.141-.801-.288-1.778-.345-2.625a7.402 7.402 0 01-.012-1.032c.008-.106.019-.173.026-.208.937-1.553 1.477-3.322 1.477-5.205 0-2.122-.66-4.06-1.794-5.722z" fill="#a1b333"/><path fill-rule="evenodd" clip-rule="evenodd" d="M9.328 9.497c-2.247 1.718-3.495 3.973-3.495 6.336 0 1.178.306 2.313.882 3.369.22.402.281.816.304 1.097.024.306.012.62-.015.915-.053.589-.18 1.256-.333 1.913a38.712 38.712 0 01-.639 2.359c.88-.32 1.843-.648 2.755-.914a17.944 17.944 0 012.145-.507c.57-.09 1.4-.179 2.112.068 1.6.554 3.391.867 5.289.867 3.578 0 6.757-1.111 9.005-2.83 2.246-1.719 3.495-3.974 3.495-6.337 0-2.363-1.249-4.618-3.495-6.336-2.248-1.72-5.427-2.83-9.005-2.83-3.579 0-6.757 1.11-9.005 2.83zM7.303 6.849c2.88-2.202 6.784-3.516 11.03-3.516 4.245 0 8.15 1.314 11.03 3.516 2.88 2.203 4.803 5.364 4.803 8.984s-1.923 6.781-4.804 8.984c-2.879 2.202-6.784 3.516-11.03 3.516-2.238 0-4.376-.365-6.317-1.029-.002.006-.16-.01-.563.054-.464.073-1.057.217-1.731.414-1.343.392-2.85.946-3.998 1.393-1.99.774-4.016-1.137-3.346-3.172.355-1.079.774-2.442 1.047-3.619.138-.593.227-1.091.26-1.46a2.9 2.9 0 00.014-.285A10.293 10.293 0 012.5 15.833c0-3.62 1.923-6.781 4.804-8.984zm-3.61 13.689l.002.014a.092.092 0 01-.002-.014z" fill="#a1b333"/></svg><svg viewBox="0 0 24 24" id="icon-clock" xmlns="http://www.w3.org/2000/svg"><path d="M13 6.5a1 1 0 10-2 0V12a1 1 0 00.293.707l3 3a1 1 0 001.414-1.414L13 11.586V6.5z"/><path fill-rule="evenodd" clip-rule="evenodd" d="M12 1C5.925 1 1 5.925 1 12s4.925 11 11 11 11-4.925 11-11S18.075 1 12 1zM3 12a9 9 0 1118 0 9 9 0 01-18 0z"/></svg><svg viewBox="0 0 24 24" id="icon-cooperation" xmlns="http://www.w3.org/2000/svg"><path fill-rule="evenodd" clip-rule="evenodd" d="M14.182 3.25a.393.393 0 00-.34.195l-.006.01-4.586 7.436v9.859h8.586a.393.393 0 00.383-.308l.004-.015 2.55-9.96a.393.393 0 00-.386-.467H16.5c-.651 0-1.31-.218-1.79-.686-.504-.492-.738-1.197-.588-1.956l.719-3.639a.393.393 0 00-.385-.469h-.274zM7.25 20.75v-9.143H3.707a.393.393 0 00-.393.39l-.064 8.357a.393.393 0 00.393.396H7.25zm.442-11.143l4.43-7.182a2.393 2.393 0 012.06-1.175h.274a2.393 2.393 0 012.347 2.857l-.719 3.638a.208.208 0 00-.002.1c.002.008.007.02.025.038.042.04.166.117.393.117h3.887a2.393 2.393 0 012.336 2.912l-.004.016-2.551 9.966a2.393 2.393 0 01-2.332 1.856H3.643a2.393 2.393 0 01-2.393-2.411l.064-8.357a2.393 2.393 0 012.393-2.375h3.985z"/></svg><svg viewBox="0 0 24 24" id="icon-cross" xmlns="http://www.w3.org/2000/svg"><path fill-rule="evenodd" clip-rule="evenodd" d="M4.293 4.293a1 1 0 011.414 0L12 10.586l6.293-6.293a1 1 0 111.414 1.414L13.414 12l6.293 6.293a1 1 0 01-1.414 1.414L12 13.414l-6.293 6.293a1 1 0 01-1.414-1.414L10.586 12 4.293 5.707a1 1 0 010-1.414z"/></svg><svg viewBox="0 0 24 24" id="icon-home" xmlns="http://www.w3.org/2000/svg"><path fill-rule="evenodd" clip-rule="evenodd" d="M12.784 4.172a3 3 0 00-1.568 0c-.534.144-1.053.524-2.531 1.673l-2.6 2.023c-.952.74-1.271.999-1.497 1.304a3 3 0 00-.477.976c-.102.365-.11.777-.11 1.982v6.62c0 .77.01.934.042 1.04a1 1 0 00.667.667c.106.032.27.043 1.04.043h.625l.174-.001a1 1 0 00.95-.95l.001-.174V16.5a4.5 4.5 0 019 0v2.875l.001.174a1 1 0 00.95.95H18.25c.77 0 .934-.01 1.04-.042a1 1 0 00.667-.667c.032-.106.043-.27.043-1.04v-6.62c0-1.205-.009-1.617-.11-1.982a3.003 3.003 0 00-.478-.976c-.226-.305-.545-.564-1.496-1.304l-2.6-2.023c-1.479-1.15-1.997-1.529-2.532-1.673zm-2.09-1.93a5 5 0 012.613 0c.973.263 1.827.928 3.066 1.892l.17.133 2.6 2.022.107.083c.804.625 1.36 1.057 1.77 1.611.362.489.631 1.04.795 1.626.186.663.186 1.368.185 2.386v6.881c.001.571.002 1.064-.129 1.495a3 3 0 01-2 2c-.43.13-.924.13-1.495.129h-.772c-.095 0-.177 0-.251-.004a3 3 0 01-2.85-2.849c-.003-.074-.003-.156-.003-.251V16.5a2.5 2.5 0 00-5 0v2.896c0 .095 0 .177-.003.251a3 3 0 01-3.1 2.853h-.773c-.57 0-1.064.001-1.495-.13a3 3 0 01-2-2C2 19.94 2 19.448 2 18.877V12.13v-.135c0-1.018 0-1.723.185-2.386a5 5 0 01.795-1.626c.41-.554.966-.986 1.77-1.611l.107-.083 2.6-2.022.17-.133c1.24-.964 2.093-1.63 3.067-1.893z"/></svg><svg viewBox="0 0 24 24" id="icon-location" xmlns="http://www.w3.org/2000/svg"><path fill-rule="evenodd" clip-rule="evenodd" d="M12 7.75a2 2 0 100 4 2 2 0 000-4zm-4 2a4 4 0 118 0 4 4 0 01-8 0z"/><path fill-rule="evenodd" clip-rule="evenodd" d="M12 3.25c-3.62 0-6.5 2.836-6.5 6.27 0 2.798 1.682 5.625 3.52 7.848A27.9 27.9 0 0012 20.44a27.899 27.899 0 002.98-3.072c1.838-2.223 3.52-5.05 3.52-7.849 0-3.433-2.88-6.269-6.5-6.269zm0 18.5l-.62.785-.002-.002-.005-.004-.02-.016a13.707 13.707 0 01-.322-.267 29.907 29.907 0 01-3.552-3.604C5.568 16.333 3.5 13.043 3.5 9.52 3.5 4.923 7.335 1.25 12 1.25s8.5 3.673 8.5 8.27c0 3.523-2.068 6.811-3.98 9.123a29.911 29.911 0 01-3.551 3.604 17.519 17.519 0 01-.322.266l-.02.016-.005.004-.002.002-.62-.785zm0 0l.619.785a1 1 0 01-1.238 0L12 21.75z"/></svg><svg fill="none" viewBox="0 0 40 40" id="icon-phone" xmlns="http://www.w3.org/2000/svg"><path fill-rule="evenodd" clip-rule="evenodd" d="M14.166 4.87a2.5 2.5 0 00-2.5 2.5v25.26a2.5 2.5 0 002.5 2.5h11.667a2.5 2.5 0 002.5-2.5V7.37a2.5 2.5 0 00-2.5-2.5h-.139l-.406.974a1.667 1.667 0 01-1.538 1.025h-7.5c-.673 0-1.28-.404-1.539-1.025l-.406-.975h-.139zm-5.833 2.5a5.833 5.833 0 015.833-5.834h11.667a5.833 5.833 0 015.833 5.833v25.26a5.833 5.833 0 01-5.833 5.834H14.166a5.833 5.833 0 01-5.833-5.833V7.37z" fill="#a1b333"/></svg><svg viewBox="0 0 24 24" id="icon-wallet" xmlns="http://www.w3.org/2000/svg"><path fill-rule="evenodd" clip-rule="evenodd" d="M4.25 3.25a1 1 0 00-1 1v15.5a1 1 0 001 1h15.5a1 1 0 001-1v-3.17c-.313.11-.65.17-1 .17H14a3 3 0 01-3-3v-3.5a3 3 0 013-3h5.75c.35 0 .687.06 1 .17V4.25a1 1 0 00-1-1H4.25zm18.5 1a3 3 0 00-3-3H4.25a3 3 0 00-3 3v15.5a3 3 0 003 3h15.5a3 3 0 003-3V4.25zm-2 6a1 1 0 00-1-1H14a1 1 0 00-1 1v3.5a1 1 0 001 1h5.75a1 1 0 001-1v-3.5zm-5 2a.25.25 0 100-.5.25.25 0 000 .5zM14 12a1.75 1.75 0 113.5 0 1.75 1.75 0 01-3.5 0z"/></svg><svg viewBox="0 0 24 24" id="slider-nav-btn-next" xmlns="http://www.w3.org/2000/svg"><path fill-rule="evenodd" clip-rule="evenodd" d="M14.793 6.793a1 1 0 011.414 0l4.5 4.5a1 1 0 010 1.414l-4.5 4.5a1 1 0 01-1.414-1.414L17.586 13H4a1 1 0 110-2h13.586l-2.793-2.793a1 1 0 010-1.414z"/></svg><svg viewBox="0 0 24 24" id="slider-nav-btn-prev" xmlns="http://www.w3.org/2000/svg"><path fill-rule="evenodd" clip-rule="evenodd" d="M9.207 17.207a1 1 0 01-1.414 0l-4.5-4.5a1 1 0 010-1.414l4.5-4.5a1 1 0 011.414 1.414L6.414 11H20a1 1 0 110 2H6.414l2.793 2.793a1 1 0 010 1.414z"/></svg><svg viewBox="0 0 24 24" id="social-contact-mail" xmlns="http://www.w3.org/2000/svg"><path fill-rule="evenodd" clip-rule="evenodd" d="M22.75 18V7a3 3 0 00-3-3H4.25a3 3 0 00-3 3v11a3 3 0 003 3h15.5a3 3 0 003-3zm-2-8.74V18a1 1 0 01-1 1H4.25a1 1 0 01-1-1V9.26l7.063 4.802a3 3 0 003.374 0L20.75 9.26zm-.011-2.411A1 1 0 0019.75 6H4.25a1 1 0 00-.989.848l8.177 5.56a1 1 0 001.124 0l8.177-5.56z"/></svg><svg viewBox="0 0 24 24" id="social-facebook" xmlns="http://www.w3.org/2000/svg"><path d="M17.563 1.005L14.786 1c-3.12 0-5.137 2.125-5.137 5.414v2.497H6.857c-.242 0-.437.2-.437.448v3.617c0 .248.196.449.437.449h2.792v9.126c0 .248.195.449.437.449h3.643a.443.443 0 00.437-.449v-9.126h3.265c.241 0 .436-.2.436-.449l.002-3.617a.456.456 0 00-.128-.317.431.431 0 00-.31-.131h-3.265V6.794c0-1.017.236-1.533 1.525-1.533h1.871c.241 0 .437-.202.437-.45V1.454a.443.443 0 00-.436-.448z"/></svg><svg viewBox="0 0 24 24" id="social-github" xmlns="http://www.w3.org/2000/svg"><path d="M15.7 23c-.6 0-1-.4-1-1v-4.3c0-.8 0-.8-.3-1.1-.3-.3-.4-.7-.2-1 .1-.4.5-.6.8-.7 2.8-.3 5.4-1.2 5.4-5.7 0-1.1-.4-2.1-1.2-2.9-.3-.3-.4-.7-.2-1.1.2-.5.3-.9.3-1.4 0-.3 0-.5-.1-.8-.5.1-1.4.4-2.7 1.2-.2.1-.5.2-.8.1-2.2-.5-4.4-.5-6.6 0-.3.1-.5 0-.8-.1C6.8 3.4 5.9 3.1 5.4 3c0 .3-.1.6-.1.8 0 .5.1 1 .3 1.4.1.4 0 .8-.2 1.1-.4.4-.7.9-.9 1.4-.2.5-.3 1-.3 1.6 0 4.2 2.2 5.3 5.4 5.7.4 0 .7.3.8.7.1.4 0 .8-.2 1-.3.3-.3.5-.3 1.4v4c0 .6-.4 1-1 1s-1-.4-1-1v-1c-3 .4-4.2-1.3-5.1-2.5-.4-.5-.7-1-1-1.1-.5-.1-.9-.7-.7-1.2.2-.5.7-.9 1.2-.7 1 .3 1.6 1.1 2.2 1.9.8 1.1 1.5 2.1 3.4 1.7v-.9c0-.4-.1-.9 0-1.5-2.8-.6-5.7-2.2-5.7-7.4 0-.8.2-1.6.5-2.3.2-.5.5-1.1.9-1.5-.1-.5-.2-1-.2-1.6 0-.8.2-1.5.5-2.2.1-.5.3-.7.6-.7.3-.1 1.7-.3 4.4 1.3 2.2-.5 4.5-.5 6.7 0C18.3.8 19.6 1 20 1.1c.3.1.5.3.6.5.4.7.5 1.4.6 2.2 0 .5 0 1.1-.2 1.6.9 1.1 1.4 2.4 1.4 3.8 0 5.3-3 6.9-5.7 7.5.1.3.1.7 0 1V22c0 .6-.5 1-1 1z"/></svg><svg viewBox="0 0 20 20" id="social-google" xmlns="http://www.w3.org/2000/svg"><path d="M10.176 8.752h8.23c.09.507.135.992.135 1.453 0 1.642-.344 3.108-1.033 4.399a7.458 7.458 0 01-2.945 3.025c-1.275.726-2.738 1.09-4.387 1.09a8.57 8.57 0 01-3.394-.687A8.718 8.718 0 014 16.176a8.719 8.719 0 01-1.856-2.781A8.57 8.57 0 011.458 10c0-1.188.229-2.32.687-3.394A8.717 8.717 0 014 3.826 8.718 8.718 0 016.78 1.97a8.57 8.57 0 013.395-.687c2.27 0 4.218.76 5.845 2.282L13.65 5.846c-.93-.9-2.089-1.35-3.473-1.35-.977 0-1.879.245-2.708.737A5.437 5.437 0 005.5 7.237 5.456 5.456 0 004.773 10c0 .999.242 1.92.726 2.764a5.437 5.437 0 001.97 2.003 5.21 5.21 0 002.707.738c.658 0 1.263-.09 1.816-.272.552-.182 1.006-.409 1.362-.681.356-.273.666-.583.93-.931.266-.348.46-.678.585-.988.125-.31.21-.605.256-.885h-4.95V8.752z"/></svg><svg viewBox="0 0 24 24" id="social-instagram" xmlns="http://www.w3.org/2000/svg"><path d="M21.98 7.88c-.046-1.063-.218-1.793-.464-2.426a4.88 4.88 0 00-1.157-1.774 4.922 4.922 0 00-1.77-1.153c-.637-.246-1.363-.418-2.426-.464-1.07-.051-1.41-.063-4.126-.063-2.715 0-3.055.012-4.122.059-1.062.046-1.793.218-2.426.464A4.88 4.88 0 003.715 3.68a4.924 4.924 0 00-1.152 1.77c-.247.637-.418 1.363-.465 2.426-.051 1.07-.063 1.41-.063 4.126 0 2.715.012 3.055.059 4.122.047 1.063.219 1.793.465 2.426a4.932 4.932 0 001.156 1.774c.5.508 1.106.902 1.77 1.152.637.247 1.364.419 2.426.465 1.067.047 1.407.059 4.122.059 2.716 0 3.056-.012 4.122-.059 1.063-.046 1.793-.218 2.426-.464a5.116 5.116 0 002.927-2.927c.246-.637.418-1.364.465-2.426.047-1.067.058-1.407.058-4.122s-.004-3.055-.05-4.122zm-1.8 8.166c-.044.977-.208 1.504-.345 1.855a3.317 3.317 0 01-1.898 1.9c-.352.136-.883.3-1.856.343-1.055.047-1.371.059-4.04.059-2.668 0-2.989-.012-4.04-.059-.977-.043-1.504-.207-1.856-.344a3.077 3.077 0 01-1.148-.746 3.11 3.11 0 01-.747-1.148c-.136-.352-.3-.883-.343-1.856-.047-1.055-.059-1.372-.059-4.04 0-2.669.012-2.99.059-4.04.043-.977.207-1.504.343-1.856A3.04 3.04 0 015 4.965a3.105 3.105 0 011.15-.746c.35-.137.882-.3 1.855-.344 1.055-.046 1.372-.058 4.04-.058 2.672 0 2.989.012 4.04.058.977.043 1.504.207 1.856.344.433.16.828.414 1.148.746.332.325.586.715.747 1.15.136.35.3.882.343 1.855.047 1.055.059 1.371.059 4.04 0 2.668-.012 2.98-.059 4.036z"/><path d="M12.037 6.864A5.139 5.139 0 006.9 12.002a5.139 5.139 0 105.138-5.138zm0 8.47a3.333 3.333 0 11.001-6.666 3.333 3.333 0 010 6.667zM18.578 6.661a1.2 1.2 0 11-2.4 0 1.2 1.2 0 012.4 0z"/></svg><svg viewBox="0 0 24 24" id="social-instagram-filled" xmlns="http://www.w3.org/2000/svg"><path fill-rule="evenodd" clip-rule="evenodd" d="M2 12c0-4.191 0-6.287 1.05-7.733A5.5 5.5 0 014.267 3.05C5.713 2 7.81 2 12 2s6.287 0 7.733 1.05a5.5 5.5 0 011.217 1.217C22 5.713 22 7.81 22 12s0 6.287-1.05 7.733a5.5 5.5 0 01-1.217 1.217C18.287 22 16.19 22 12 22s-6.287 0-7.733-1.05a5.5 5.5 0 01-1.217-1.217C2 18.287 2 16.19 2 12zm10-5.294a5.294 5.294 0 100 10.589 5.294 5.294 0 000-10.59zm0 8.603A3.313 3.313 0 018.691 12 3.313 3.313 0 0112 8.691 3.313 3.313 0 0115.309 12 3.313 3.313 0 0112 15.309zm6.397-9a.705.705 0 11-1.411 0 .705.705 0 011.41 0z"/></svg><svg viewBox="0 0 24 24" id="social-telegram" xmlns="http://www.w3.org/2000/svg"><path d="M9.633 15.181l-.364 5.584c.52 0 .746-.244 1.016-.537l2.441-2.545 5.059 4.041c.927.564 1.581.267 1.831-.93l3.32-16.973h.001c.295-1.497-.495-2.082-1.4-1.715L2.022 10.257c-1.332.564-1.311 1.374-.226 1.741l4.99 1.693 11.59-7.91c.545-.395 1.04-.177.633.217l-9.375 9.183z"/></svg><svg viewBox="0 0 24 24" id="social-vk" xmlns="http://www.w3.org/2000/svg"><g clip-path="url(#vclip0_2091_4028)"><path d="M19.915 13.028c-.388-.49-.277-.708 0-1.146.005-.005 3.208-4.431 3.538-5.932l.002-.001c.164-.547 0-.949-.793-.949h-2.624c-.668 0-.976.345-1.141.731 0 0-1.336 3.198-3.226 5.271-.61.599-.892.791-1.225.791-.164 0-.419-.192-.419-.739V5.949c0-.656-.187-.949-.74-.949H9.161c-.419 0-.668.306-.668.591 0 .622.945.765 1.043 2.515v3.797c0 .832-.151.985-.486.985-.892 0-3.057-3.211-4.34-6.886-.259-.713-.512-1.001-1.185-1.001H.9c-.749 0-.9.345-.9.731 0 .682.892 4.073 4.148 8.553C6.318 17.343 9.374 19 12.154 19c1.671 0 1.875-.368 1.875-1.001 0-2.922-.151-3.198.686-3.198.388 0 1.056.192 2.616 1.667C19.114 18.217 19.407 19 20.405 19h2.624c.748 0 1.127-.368.909-1.094-.499-1.527-3.871-4.668-4.023-4.878z"/></g><defs><clipPath id="vclip0_2091_4028"><path d="M0 0h24v24H0z"/></clipPath></defs></svg></svg>