<svg id="Слой_1" data-name="Слой 1" xmlns="http://www.w3.org/2000/svg" viewBox="0 0 480 280"><defs><style>.cls-3,.cls-9{fill:#404040}.cls-8{fill:#fff}.cls-9{opacity:.5;font-size:6px;font-family:SegoePrint,Segoe Print}</style></defs><path fill="#d0e8fc" d="M0 0h480v280H0z"/><g opacity=".8"><path class="cls-3" d="M242 194.155l-1.967 3.345L223 187.845l1.967-3.345L242 194.155zM307.967 197.5L306 194.155l17.033-9.655 1.967 3.345-17.033 9.655zM271 154h6v20h-6z"/><path class="cls-3" d="M269 154h10v20h-10zM284 188l-10 10-10-10h-20v30h60v-30zm-10 25.5a1.5 1.5 0 111.5-1.5 1.5 1.5 0 01-1.5 1.5zm0-4.5a1.5 1.5 0 111.5-1.5 1.5 1.5 0 01-1.5 1.5zm0-4.5a1.5 1.5 0 111.5-1.5 1.5 1.5 0 01-1.5 1.5zm26-3.5a1 1 0 01-1 1h-14a1 1 0 01-1-1v-3h16zM261 220h10v10h-10zM277 220h10v10h-10z"/><path class="cls-3" d="M315 144h-36a2 2 0 00-2 2v36a2 2 0 002 2h36a2 2 0 002-2v-36a2 2 0 00-2-2zm-3 33a2 2 0 01-2 2h-26a2 2 0 01-2-2v-26a2 2 0 012-2h26a2 2 0 012 2z"/><path class="cls-3" d="M304.498 155.88v14h-1.465v-11.2l-5.672 9.42h-.722l-5.672-9.36v11.14h-1.465v-14h1.258l6.271 10.38 6.21-10.38zM269 144h-36a2 2 0 00-2 2v36a2 2 0 002 2h36a2 2 0 002-2v-36a2 2 0 00-2-2zm-3 33a2 2 0 01-2 2h-26a2 2 0 01-2-2v-26a2 2 0 012-2h26a2 2 0 012 2z"/><path class="cls-3" d="M255.578 162.88h1.475v5.34a7.162 7.162 0 01-2.408 1.32 9.27 9.27 0 01-2.928.46 8.278 8.278 0 01-3.924-.92 6.941 6.941 0 01-2.742-2.55 7.187 7.187 0 010-7.3 6.948 6.948 0 012.742-2.55 8.318 8.318 0 013.943-.92 8.815 8.815 0 013.053.51 6.112 6.112 0 012.348 1.51l-.957.94a6.1 6.1 0 00-4.381-1.64 6.72 6.72 0 00-3.186.75 5.601 5.601 0 00-3.043 5.05 5.535 5.535 0 00.81 2.96 5.74 5.74 0 002.222 2.08 6.593 6.593 0 003.177.76 6.495 6.495 0 003.8-1.08z"/></g><rect x="182.25" y="100.25" width="5.5" height="119.5" rx=".257" ry=".257" fill="#9b7753"/><path class="cls-3" d="M187.493 100.5l.007.007-.007 118.993-4.993-.007.007-118.993h4.986m0-.5h-4.986a.507.507 0 00-.507.507v118.986a.507.507 0 00.507.507h4.986a.507.507 0 00.507-.507V100.507a.507.507 0 00-.507-.507z"/><rect x="154.75" y="103.75" width="60.5" height="80.5" rx="3.714" ry="3.714" fill="#cfaf7e"/><path class="cls-3" d="M211.536 104a3.464 3.464 0 013.464 3.464v73.072a3.464 3.464 0 01-3.464 3.464h-53.072a3.464 3.464 0 01-3.464-3.464v-73.072a3.464 3.464 0 013.464-3.464h53.072m0-.5h-53.072a3.969 3.969 0 00-3.964 3.964v73.072a3.969 3.969 0 003.964 3.964h53.072a3.969 3.969 0 003.964-3.964v-73.072a3.969 3.969 0 00-3.964-3.964z"/><circle class="cls-3" cx="159" cy="108" r="1"/><circle class="cls-3" cx="211" cy="108" r="1"/><circle class="cls-3" cx="159" cy="180" r="1"/><circle class="cls-3" cx="211" cy="180" r="1"/><path stroke="#404040" stroke-miterlimit="10" fill="#a1b333" stroke-width=".25" d="M161 230h44l-5-6-5 1 4-10-8 7-2-15-4 13-5-18-1 17-4 5-4-2-10 8"/><rect x="165.25" y="110.25" width="39.5" height="15.5" rx="1.539" ry="1.539" fill="#7f7f7f"/><path class="cls-3" d="M203.211 110.5a1.29 1.29 0 011.289 1.289v12.422a1.29 1.29 0 01-1.289 1.289H166.79a1.29 1.29 0 01-1.289-1.289V111.79a1.29 1.29 0 011.289-1.289h36.422m0-.5H166.79a1.789 1.789 0 00-1.789 1.789v12.422a1.789 1.789 0 001.789 1.789h36.422a1.789 1.789 0 001.789-1.789V111.79a1.789 1.789 0 00-1.789-1.789z"/><path class="cls-8" d="M175.899 111.939a1.642 1.642 0 010 2.413 2.23 2.23 0 01-1.46.435h-1.306v1.517h-.515V111.5h1.821a2.22 2.22 0 011.46.439zm-.369 2.09a1.073 1.073 0 00.383-.882 1.089 1.089 0 00-.383-.896 1.704 1.704 0 00-1.105-.313h-1.292v2.403h1.292a1.704 1.704 0 001.105-.312zM180.541 114.65h-3.058a1.285 1.285 0 00.438.91 1.466 1.466 0 001 .347 1.59 1.59 0 00.626-.121 1.36 1.36 0 00.494-.353l.278.316a1.57 1.57 0 01-.608.438 2.214 2.214 0 01-1.8-.085 1.716 1.716 0 01-.677-.656 1.846 1.846 0 01-.244-.947 1.913 1.913 0 01.233-.947 1.668 1.668 0 01.64-.652 1.806 1.806 0 01.913-.234 1.787 1.787 0 01.91.234 1.664 1.664 0 01.633.648 1.936 1.936 0 01.23.951zm-2.651-1.232a1.3 1.3 0 00-.406.869h2.592a1.302 1.302 0 00-.407-.869 1.354 1.354 0 00-1.779 0zM184.74 114.698h-.792v1.606h-.494v-1.606h-.792l-1.12 1.606h-.59l1.314-1.86-1.21-1.75h.536l1.07 1.586h.792v-1.586h.494v1.586h.792l1.077-1.586h.536l-1.21 1.757 1.314 1.853h-.591zM187.276 112.694h.494v2.869l2.44-2.869h.438v3.61h-.494v-2.869l-2.433 2.87h-.444zM196.145 112.694v3.61h-.452v-2.855l-1.48 2.416h-.223l-1.48-2.423v2.862h-.452v-3.61h.5l1.55 2.602 1.578-2.602zM175.315 119.76a1.655 1.655 0 01.653.65 1.908 1.908 0 01.237.953 1.927 1.927 0 01-.237.961 1.663 1.663 0 01-.65.649 1.891 1.891 0 01-.934.23 1.742 1.742 0 01-.803-.182 1.513 1.513 0 01-.587-.532v2.011h-.494v-4.942h.473v.713a1.514 1.514 0 01.587-.548 1.739 1.739 0 01.823-.193 1.897 1.897 0 01.932.23zm-.271 2.835a1.244 1.244 0 00.49-.497 1.504 1.504 0 00.177-.735 1.481 1.481 0 00-.177-.73 1.269 1.269 0 00-.49-.499 1.452 1.452 0 00-1.394 0 1.273 1.273 0 00-.486.498 1.476 1.476 0 00-.178.731 1.5 1.5 0 00.178.735 1.248 1.248 0 00.487.497 1.473 1.473 0 001.393 0zM179.603 119.883a1.36 1.36 0 01.382 1.047v2.238h-.473v-.563a1.127 1.127 0 01-.49.44 1.734 1.734 0 01-.767.157 1.515 1.515 0 01-.974-.288.984.984 0 01-.024-1.503 1.665 1.665 0 011.074-.282h1.16v-.219a.92.92 0 00-.263-.71 1.104 1.104 0 00-.772-.244 1.98 1.98 0 00-.667.113 1.678 1.678 0 00-.55.312l-.222-.364a1.978 1.978 0 01.667-.36 2.609 2.609 0 01.82-.127 1.561 1.561 0 011.099.353zm-.556 2.747a1.132 1.132 0 00.445-.546v-.59h-1.147q-.938 0-.938.645a.589.589 0 00.243.498 1.123 1.123 0 00.68.181 1.316 1.316 0 00.717-.188zM183.978 119.87a1.577 1.577 0 01.623.624 2.003 2.003 0 01-.011 1.854 1.63 1.63 0 01-.65.635 1.987 1.987 0 01-.96.226 1.696 1.696 0 01-1.41-.63 2.74 2.74 0 01-.5-1.745 2.994 2.994 0 01.448-1.777 2.283 2.283 0 011.4-.838l1.64-.37.084.446-1.543.35a2.018 2.018 0 00-1.154.607 2.081 2.081 0 00-.403 1.287 1.644 1.644 0 01.619-.656 1.737 1.737 0 01.91-.237 1.831 1.831 0 01.907.224zm-.299 2.76a1.23 1.23 0 00.473-.491 1.48 1.48 0 00.17-.714 1.43 1.43 0 00-.167-.7 1.188 1.188 0 00-.469-.47 1.51 1.51 0 00-1.383 0 1.213 1.213 0 00-.472.47 1.399 1.399 0 00-.171.7 1.473 1.473 0 00.17.714 1.22 1.22 0 00.477.491 1.367 1.367 0 00.688.174 1.35 1.35 0 00.684-.174zM186.435 122.966a1.736 1.736 0 01-.667-.656 1.965 1.965 0 010-1.894 1.706 1.706 0 01.667-.652 2.058 2.058 0 011.905 0 1.685 1.685 0 01.664.652 1.988 1.988 0 010 1.894 1.714 1.714 0 01-.664.656 2.035 2.035 0 01-1.905 0zm1.651-.37a1.227 1.227 0 00.483-.499 1.64 1.64 0 000-1.468 1.233 1.233 0 00-.483-.498 1.487 1.487 0 00-1.397 0 1.254 1.254 0 00-.486.498 1.61 1.61 0 000 1.468 1.248 1.248 0 00.486.498 1.48 1.48 0 001.397 0zM192.732 119.99h-1.383v3.178h-.493v-3.178h-1.383v-.432h3.26zM196.033 121.137a1.033 1.033 0 01.362.85 1.064 1.064 0 01-.39.886 1.725 1.725 0 01-1.111.301l-1.446-.006v-3.61h.493v1.263l1.043.013a1.65 1.65 0 011.05.303zm-.4 1.465a.743.743 0 00.26-.615.69.69 0 00-.256-.59 1.314 1.314 0 00-.772-.199l-.924-.013v1.605l.924.014a1.178 1.178 0 00.769-.202zm1.374-3.044h.493v3.61h-.493z"/><text class="cls-9" transform="translate(173.244 137.04)">Пн-<tspan x="11.971" y="0" letter-spacing="-.01em">Ч</tspan><tspan x="16.802" y="0">т:</tspan></text><text class="cls-9" transform="rotate(-2 4279.25 -4637.081)">11:00-20:00</text><text class="cls-9" transform="translate(174.061 157.04)"><tspan letter-spacing="-.015em">П</tspan><tspan x="4.506" y="0">т-Вс:</tspan></text><text class="cls-9" transform="rotate(1.985 -4646.492 4789.53)">10:00-20:00</text><path d="M178.753 180a71.2 71.2 0 008.125-1.194 11.13 11.13 0 002.25-.644c.624-.287 1.038-.69.89-1.084-.204-.538-1.346-.897-2.447-1.136-2.355-.512-4.946-.763-7.414-1.156a17.722 17.722 0 01-3.49-.83 1.258 1.258 0 01-.642-.408c-.166-.34.53-.634 1.182-.826 4.302-1.26 9.64-1.522 14.598-2.141A5.325 5.325 0 00194 170" style="isolation:isolate" fill="none" stroke-width=".5" opacity=".5" stroke="#404040" stroke-miterlimit="10"/></svg>